<svg width="116" height="67" viewBox="0 0 116 67" fill="none" xmlns="http://www.w3.org/2000/svg">
<rect width="116" height="67" rx="33.5" fill="#1D1D1D"/>
<g clip-path="url(#clip0_490_159)">
<path d="M24 43V24H28.4243L38.9014 36.6486H36.8114V24H42.0771V43H37.6529L27.1757 30.3514H29.2657V43H24ZM42.5838 31.3557H68V35L42.5838 35.3729V31.3557ZM42.9638 38.8471H68V43L37.6438 43V24H68V28.1529H42.9638V38.8471Z" fill="white"/>
</g>
<g clip-path="url(#clip1_490_159)">
<path d="M41 43V24H45.4243L55.9014 36.6486H53.8114V24H59.0771V43H54.6529L44.1757 30.3514H46.2657V43H41ZM59.5838 31.3557H68.4052V35.3729H59.5838V31.3557ZM59.9638 38.8471H69.898V43H54.6438V24H69.5452V28.1529H59.9638V38.8471ZM71.2582 43L79.5639 31.4643L79.5367 35.2914L71.5567 24H77.6096L82.7125 31.3557L80.1339 31.3829L85.1553 24H90.9639L82.9839 35.0743V31.2743L91.3982 43H85.2096L80.0253 35.2643H82.4953L77.3925 43H71.2582Z" fill="white"/>
</g>
<defs>
<clipPath id="clip0_490_159">
<rect width="44" height="19" fill="white" transform="translate(24 24)"/>
</clipPath>
<clipPath id="clip1_490_159">
<rect width="23" height="19" fill="white" transform="translate(70 24)"/>
</clipPath>
</defs>
</svg>
