<svg width="24" height="25" viewBox="0 0 24 25" fill="none" xmlns="http://www.w3.org/2000/svg">
<path d="M18 16.5C18 16.878 18.271 17.198 18.644 17.26L21.686 17.767C23.027 17.99 24.001 19.14 24.001 20.5C24.001 22.154 22.655 23.5 21.001 23.5V24.5H19.001V23.5C17.347 23.5 16.001 22.154 16.001 20.5H18.001C18.001 21.051 18.45 21.5 19.001 21.5H21.001C21.552 21.5 22.001 21.051 22.001 20.5C22.001 20.122 21.73 19.802 21.357 19.74L18.315 19.233C16.974 19.01 16 17.86 16 16.5C16 14.846 17.346 13.5 19 13.5V12.5H21V13.5C22.654 13.5 24 14.846 24 16.5H22C22 15.949 21.551 15.5 21 15.5H19C18.449 15.5 18 15.949 18 16.5ZM15 0.5H14V10.5H24V9.5C24 4.538 19.962 0.5 15 0.5ZM16.031 12.5H12V2.5H11C4.935 2.5 0 7.435 0 13.5C0 19.565 4.935 24.5 11 24.5C12.476 24.5 13.882 24.203 15.169 23.674C14.45 22.808 14 21.711 14 20.5V16.5C14 14.859 14.806 13.412 16.031 12.5Z" fill="url(#paint0_linear_68_96)"/>
<defs>
<linearGradient id="paint0_linear_68_96" x1="12.0005" y1="0.5" x2="12.0005" y2="24.5" gradientUnits="userSpaceOnUse">
<stop/>
<stop offset="1" stop-color="#666666"/>
</linearGradient>
</defs>
</svg>
