<svg width="35" height="35" viewBox="0 0 35 35" fill="none" xmlns="http://www.w3.org/2000/svg">
<g clip-path="url(#clip0_57_57)">
<path d="M28.7598 13.6062C28.7802 13.3262 28.8021 13.0462 28.8021 12.7604C28.8021 6.52894 23.7315 1.45831 17.5 1.45831C11.2685 1.45831 6.19792 6.52894 6.19792 12.7604C6.19792 13.0462 6.21979 13.3262 6.24021 13.6062C2.54625 15.4671 0 19.2864 0 23.6979C0 29.9294 5.07063 35 11.3021 35C13.5902 35 15.7179 34.3116 17.5 33.1377C19.2821 34.3116 21.4098 35 23.6979 35C29.9294 35 35 29.9294 35 23.6979C35 19.2864 32.4538 15.4671 28.7598 13.6062ZM7.65625 12.7604C7.65625 7.33248 12.0721 2.91665 17.5 2.91665C22.9279 2.91665 27.3438 7.33248 27.3438 12.7604C27.3438 12.8435 27.3335 12.9237 27.3306 13.0054C26.1887 12.616 24.9696 12.3958 23.6979 12.3958C21.4098 12.3958 19.2821 13.0841 17.5 14.2581C15.7179 13.0841 13.5902 12.3958 11.3021 12.3958C10.0304 12.3958 8.81125 12.6175 7.66937 13.0054C7.66792 12.9223 7.65625 12.8421 7.65625 12.7604ZM21.1458 23.6979C21.1458 26.7779 19.721 29.5298 17.5 31.3352C15.279 29.5283 13.8542 26.7779 13.8542 23.6979C13.8542 23.6148 13.8644 23.5346 13.8673 23.4529C15.0092 23.8423 16.2283 24.0625 17.5 24.0625C18.7717 24.0625 19.9908 23.8408 21.1327 23.4529C21.1342 23.536 21.1458 23.6162 21.1458 23.6979ZM17.5 22.6041C16.2735 22.6041 15.1025 22.3679 14.0175 21.9566C14.4419 19.5927 15.7077 17.5175 17.5 16.0606C19.2923 17.5175 20.5581 19.5927 20.9825 21.9566C19.8975 22.3694 18.7279 22.6041 17.5 22.6041ZM12.6525 21.3179C10.1573 19.8989 8.34458 17.4241 7.81958 14.5016C8.90458 14.0889 10.0742 13.8541 11.3021 13.8541C13.1119 13.8541 14.8021 14.3529 16.2604 15.2089C14.4681 16.781 13.1717 18.9044 12.6525 21.3179ZM18.7381 15.2089C20.1965 14.3529 21.8881 13.8541 23.6965 13.8541C24.9229 13.8541 26.094 14.0904 27.179 14.5016C26.654 17.4227 24.8413 19.8975 22.346 21.3179C21.8269 18.9044 20.5304 16.781 18.7381 15.2089ZM11.3006 33.5416C5.87271 33.5416 1.45688 29.1258 1.45688 23.6979C1.45688 20.0331 3.47521 16.835 6.45313 15.1404C7.18083 18.5208 9.42667 21.3354 12.4367 22.8506C12.4163 23.1306 12.3944 23.4106 12.3944 23.6964C12.3944 27.0798 13.8965 30.1131 16.259 32.1854C14.8006 33.0414 13.109 33.5416 11.3006 33.5416ZM23.6965 33.5416C21.8867 33.5416 20.1965 33.0429 18.7381 32.1869C21.1021 30.1131 22.6027 27.0812 22.6027 23.6979C22.6027 23.4121 22.5808 23.1321 22.5604 22.8521C25.5704 21.3354 27.8162 18.5208 28.544 15.1419C31.5233 16.8364 33.5402 20.0331 33.5402 23.6994C33.5402 29.1273 29.1244 33.5416 23.6965 33.5416Z" fill="#00EAFF"/>
</g>
<defs>
<clipPath id="clip0_57_57">
<rect width="35" height="35" fill="white"/>
</clipPath>
</defs>
</svg>
