<svg width="24" height="24" viewBox="0 0 24 24" fill="none" xmlns="http://www.w3.org/2000/svg">
<g clip-path="url(#clip0_648_676)">
<path d="M24 22C24 23.105 23.105 24 22 24C21.262 24 20.624 23.595 20.277 23H16V14H18V21H20.277C20.623 20.405 21.261 20 22 20C23.105 20 24 20.895 24 22ZM13 20.277V14H11V20.277C10.405 20.623 10 21.261 10 22C10 23.105 10.895 24 12 24C13.105 24 14 23.105 14 22C14 21.262 13.595 20.624 13 20.277ZM6 21H3.723C3.377 20.405 2.739 20 2 20C0.895 20 0 20.895 0 22C0 23.105 0.895 24 2 24C2.738 24 3.376 23.595 3.723 23H8V14H6V21ZM18.341 4.837C17.085 1.923 14.199 0 11 0C6.589 0 3 3.589 3 8C3 8.324 3.021 8.65 3.061 8.976C1.774 9.91 1 11.394 1 13C1 15.044 2.239 16.793 4 17.568V12H20V16.841C21.803 15.629 23 13.581 23 11.25C23 8.299 21.109 5.733 18.341 4.837Z" fill="#00EAFF"/>
</g>
<defs>
<clipPath id="clip0_648_676">
<rect width="24" height="24" fill="white"/>
</clipPath>
</defs>
</svg>
