<svg width="35" height="35" viewBox="0 0 35 35" fill="none" xmlns="http://www.w3.org/2000/svg">
<g clip-path="url(#clip0_490_138)">
<path d="M31.3542 0H3.64583C1.63479 0 0 1.63625 0 3.64583V35H35V3.64583C35 1.63625 33.3652 0 31.3542 0ZM3.64583 1.45833H31.3542C32.5602 1.45833 33.5417 2.43979 33.5417 3.64583V5.83333H1.45833V3.64583C1.45833 2.43979 2.43979 1.45833 3.64583 1.45833ZM1.45833 33.5417V7.29167H33.5417V33.5417H1.45833ZM13.125 13.125H5.83333V11.6667H13.125V13.125ZM10.2083 18.9583H20.4167V20.4167H10.2083V18.9583ZM5.83333 26.25H20.4167V27.7083H5.83333V26.25ZM27.7083 24.166V11.6667H21.7715C21.4448 10.4125 20.3131 9.47917 18.9583 9.47917C17.3498 9.47917 16.0417 10.7873 16.0417 12.3958C16.0417 14.0044 17.3498 15.3125 18.9583 15.3125C20.3131 15.3125 21.4448 14.3792 21.7715 13.125H26.25V24.166C24.9958 24.4927 24.0625 25.6244 24.0625 26.9792C24.0625 28.5877 25.3706 29.8958 26.9792 29.8958C28.5877 29.8958 29.8958 28.5877 29.8958 26.9792C29.8958 25.6244 28.9625 24.4927 27.7083 24.166ZM18.9583 13.8542C18.1533 13.8542 17.5 13.1994 17.5 12.3958C17.5 11.5923 18.1533 10.9375 18.9583 10.9375C19.7633 10.9375 20.4167 11.5923 20.4167 12.3958C20.4167 13.1994 19.7633 13.8542 18.9583 13.8542ZM26.9792 28.4375C26.1742 28.4375 25.5208 27.7842 25.5208 26.9792C25.5208 26.1742 26.1742 25.5208 26.9792 25.5208C27.7842 25.5208 28.4375 26.1742 28.4375 26.9792C28.4375 27.7842 27.7842 28.4375 26.9792 28.4375Z" fill="#00EAFF"/>
</g>
<defs>
<clipPath id="clip0_490_138">
<rect width="35" height="35" fill="white"/>
</clipPath>
</defs>
</svg>
