<svg width="24" height="24" viewBox="0 0 24 24" fill="none" xmlns="http://www.w3.org/2000/svg">
<g clip-path="url(#clip0_788_1278)">
<path d="M20.9997 21.5V24H2.99967V21.5C2.99967 19.105 4.88467 17.16 7.24667 17.026L9.99967 21.5L11.9997 18.5L13.9997 21.5L16.7527 17.026C19.1147 17.16 20.9997 19.106 20.9997 21.5ZM6.87167 4.02703C8.40067 2.59403 10.4027 1.88603 12.5017 2.01603C16.4257 2.27003 19.5007 5.68503 19.5007 9.79003C19.5007 11.56 18.0617 12.999 16.2917 12.999H13.8857C13.6417 12.17 12.8837 11.56 11.9757 11.56C10.8707 11.56 9.97567 12.455 9.97567 13.56C9.97567 14.665 10.8707 15.56 11.9757 15.56C12.5137 15.56 13.0007 15.345 13.3597 14.999H16.2917C19.1637 14.999 21.5007 12.662 21.5007 9.79003C21.4997 4.63403 17.6037 0.342032 12.6297 0.0210318C9.96567 -0.151968 7.43867 0.753032 5.50367 2.56903C3.71667 4.24403 2.64267 6.56503 2.51367 9.00103H4.51667C4.63967 7.09803 5.46467 5.34603 6.87167 4.02703ZM15.1087 11.011C15.1317 11.006 15.1617 11 15.1617 11H16.4677C16.9687 11 17.4067 10.632 17.4647 10.134C17.5327 9.54703 17.5077 8.93203 17.3737 8.30303C16.9297 6.22403 15.2427 4.54703 13.1607 4.11903C9.62367 3.39203 6.50167 6.08903 6.50167 9.50003C6.50167 10.969 7.08067 12.305 8.02167 13.292C8.13267 11.182 9.86267 9.50003 12.0007 9.50003C13.2637 9.50003 14.3757 10.097 15.1087 11.011Z" fill="#00EAFF"/>
</g>
<defs>
<clipPath id="clip0_788_1278">
<rect width="24" height="24" fill="white"/>
</clipPath>
</defs>
</svg>
