<svg width="24" height="21" viewBox="0 0 24 21" fill="none" xmlns="http://www.w3.org/2000/svg">
<g clip-path="url(#clip0_95_128)">
<path d="M9.87799 10.9777C10.4416 11.4689 11.2046 11.7447 12 11.7447C12.7954 11.7447 13.5584 11.4689 14.122 10.9777L23.781 2.52525C23.5586 2.03873 23.1749 1.62157 22.6793 1.32747C22.1837 1.03337 21.5988 0.875786 21 0.875H2.99999C2.40115 0.875786 1.81629 1.03337 1.32067 1.32747C0.825049 1.62157 0.441363 2.03873 0.218994 2.52525L9.87799 10.9777Z" fill="#8C8C8C"/>
<path d="M15.536 12.215C14.5974 13.0342 13.3257 13.4943 12 13.4943C10.6743 13.4943 9.40263 13.0342 8.464 12.215L0 4.8125V20.125H24V4.8125L15.536 12.215Z" fill="#8C8C8C"/>
</g>
<defs>
<clipPath id="clip0_95_128">
<rect width="24" height="21" fill="white"/>
</clipPath>
</defs>
</svg>
