<svg width="25" height="25" viewBox="0 0 25 25" fill="none" xmlns="http://www.w3.org/2000/svg">
<path d="M24.8135 11.6469C23.8989 9.64687 20.3125 3.125 12.5 3.125C4.68749 3.125 1.10103 9.64687 0.186446 11.6469C0.0636737 11.9149 0.00012207 12.2062 0.00012207 12.501C0.00012207 12.7958 0.0636737 13.0872 0.186446 13.3552C1.10103 15.3531 4.68749 21.875 12.5 21.875C20.3125 21.875 23.8989 15.3531 24.8135 13.3531C24.9361 13.0854 24.9995 12.7944 24.9995 12.5C24.9995 12.2056 24.9361 11.9146 24.8135 11.6469ZM12.5 18.75C11.2639 18.75 10.0555 18.3834 9.02767 17.6967C7.99987 17.0099 7.19879 16.0338 6.72574 14.8918C6.25269 13.7497 6.12892 12.4931 6.37008 11.2807C6.61124 10.0683 7.20649 8.95466 8.08057 8.08058C8.95465 7.2065 10.0683 6.61125 11.2807 6.37009C12.4931 6.12893 13.7497 6.25271 14.8918 6.72575C16.0338 7.1988 17.0099 7.99988 17.6967 9.02769C18.3834 10.0555 18.75 11.2639 18.75 12.5C18.7483 14.1571 18.0893 15.7458 16.9176 16.9176C15.7458 18.0893 14.1571 18.7483 12.5 18.75Z" fill="url(#paint0_linear_68_92)"/>
<path d="M12.5 16.6667C14.8012 16.6667 16.6667 14.8012 16.6667 12.5C16.6667 10.1989 14.8012 8.33337 12.5 8.33337C10.1989 8.33337 8.33337 10.1989 8.33337 12.5C8.33337 14.8012 10.1989 16.6667 12.5 16.6667Z" fill="url(#paint1_linear_68_92)"/>
<defs>
<linearGradient id="paint0_linear_68_92" x1="12.4998" y1="3.125" x2="12.4998" y2="21.875" gradientUnits="userSpaceOnUse">
<stop/>
<stop offset="1" stop-color="#666666"/>
</linearGradient>
<linearGradient id="paint1_linear_68_92" x1="12.5" y1="8.33337" x2="12.5" y2="16.6667" gradientUnits="userSpaceOnUse">
<stop/>
<stop offset="1" stop-color="#666666"/>
</linearGradient>
</defs>
</svg>
