<svg width="67" height="67" viewBox="0 0 67 67" fill="none" xmlns="http://www.w3.org/2000/svg">
<circle cx="33.5" cy="33.5" r="33.5" fill="white"/>
<circle cx="33.5" cy="33.5" r="33" stroke="white" stroke-opacity="0.2"/>
<path d="M29.8636 40.2784V39.7955C29.8731 38.1383 30.0199 36.8172 30.304 35.8324C30.5975 34.8475 31.0237 34.0521 31.5824 33.446C32.1411 32.84 32.8134 32.2907 33.5994 31.7983C34.1866 31.4195 34.7121 31.0265 35.1761 30.6193C35.6402 30.2121 36.0095 29.7623 36.2841 29.2699C36.5587 28.768 36.696 28.2093 36.696 27.5938C36.696 26.9403 36.5398 26.3674 36.2273 25.875C35.9148 25.3826 35.4934 25.0038 34.9631 24.7386C34.4422 24.4735 33.8646 24.3409 33.2301 24.3409C32.6146 24.3409 32.0322 24.4782 31.483 24.7528C30.9337 25.018 30.4839 25.4157 30.1335 25.946C29.7831 26.4669 29.5938 27.1155 29.5653 27.892H23.7699C23.8172 25.9981 24.2718 24.4356 25.1335 23.2045C25.9953 21.964 27.1364 21.0407 28.5568 20.4347C29.9773 19.8191 31.5445 19.5114 33.2585 19.5114C35.143 19.5114 36.8097 19.8239 38.2585 20.4489C39.7074 21.0644 40.8438 21.9593 41.6676 23.1335C42.4915 24.3078 42.9034 25.7235 42.9034 27.3807C42.9034 28.4886 42.7188 29.4735 42.3494 30.3352C41.9896 31.1875 41.483 31.9451 40.8295 32.608C40.1761 33.2614 39.4044 33.8532 38.5142 34.3835C37.7661 34.8286 37.1506 35.2926 36.6676 35.7756C36.1941 36.2585 35.839 36.8172 35.6023 37.4517C35.375 38.0862 35.2566 38.8674 35.2472 39.7955V40.2784H29.8636ZM32.6761 49.3693C31.7292 49.3693 30.9195 49.0379 30.2472 48.375C29.5843 47.7027 29.2576 46.8977 29.267 45.9602C29.2576 45.0322 29.5843 44.2367 30.2472 43.5739C30.9195 42.911 31.7292 42.5795 32.6761 42.5795C33.5758 42.5795 34.3665 42.911 35.0483 43.5739C35.7301 44.2367 36.0758 45.0322 36.0852 45.9602C36.0758 46.5852 35.91 47.1581 35.5881 47.679C35.2756 48.1903 34.8636 48.6023 34.3523 48.9148C33.8409 49.2178 33.2822 49.3693 32.6761 49.3693Z" fill="black"/>
</svg>
