<svg width="24" height="25" viewBox="0 0 24 25" fill="none" xmlns="http://www.w3.org/2000/svg">
<g clip-path="url(#clip0_68_97)">
<path d="M3.63805 9.49991C3.02005 9.49991 2.54005 8.94191 2.64905 8.33391C3.00805 6.33291 4.00505 4.47291 5.50405 3.06791C7.43905 1.25291 9.96605 0.34791 12.6301 0.52091C17.6511 0.84491 21.5731 5.21591 21.4991 10.4379C21.4591 13.2559 19.1101 15.5009 16.2911 15.5009H13.3591C12.9991 15.8469 12.5131 16.0619 11.9751 16.0619C10.8701 16.0619 9.97505 15.1669 9.97505 14.0619C9.97505 12.9569 10.8701 12.0619 11.9751 12.0619C12.8831 12.0619 13.6411 12.6709 13.8851 13.5009H16.2911C18.0271 13.5009 19.4801 12.1179 19.4991 10.3829C19.5451 6.23691 16.4541 2.77391 12.5011 2.51791C10.4021 2.38791 8.40005 3.09591 6.87105 4.52891C5.66205 5.66191 4.88305 7.11291 4.61005 8.70691C4.53005 9.17291 4.11005 9.50191 3.63805 9.50191V9.49991ZM12.0001 17.4999C8.30505 17.4999 5.10805 19.7919 4.04505 23.2019C3.95005 23.5059 4.00505 23.8369 4.19405 24.0929C4.38305 24.3489 4.68205 24.4999 5.00005 24.4999H19.0001C19.3181 24.4999 19.6171 24.3489 19.8061 24.0929C19.9951 23.8369 20.0501 23.5059 19.9551 23.2019C18.8921 19.7919 15.6951 17.4999 12.0001 17.4999ZM14.9341 11.4999H17.2881C17.4231 11.0229 17.5001 10.5209 17.5001 9.99991C17.5001 6.96191 15.0381 4.49991 12.0001 4.49991C8.96205 4.49991 6.50005 6.96191 6.50005 9.99991C6.50005 11.4909 7.09605 12.8409 8.05905 13.8319C8.18005 11.7659 9.87805 10.1229 11.9751 10.1229C13.1661 10.1229 14.2161 10.6639 14.9351 11.4999H14.9341Z" fill="url(#paint0_linear_68_97)"/>
</g>
<defs>
<linearGradient id="paint0_linear_68_97" x1="12.0668" y1="0.5" x2="12.0668" y2="24.4999" gradientUnits="userSpaceOnUse">
<stop/>
<stop offset="1" stop-color="#666666"/>
</linearGradient>
<clipPath id="clip0_68_97">
<rect width="24" height="24" fill="white" transform="translate(0 0.5)"/>
</clipPath>
</defs>
</svg>
