<svg width="32" height="32" viewBox="0 0 32 32" fill="none" xmlns="http://www.w3.org/2000/svg">
<g clip-path="url(#clip0_95_83)">
<mask id="mask0_95_83" style="mask-type:luminance" maskUnits="userSpaceOnUse" x="0" y="0" width="32" height="32">
<path d="M32 0H0V32H32V0Z" fill="white"/>
</mask>
<g mask="url(#mask0_95_83)">
<path fill-rule="evenodd" clip-rule="evenodd" d="M16 32C24.8366 32 32 24.8366 32 16C32 7.16346 24.8366 0 16 0C7.16346 0 0 7.16346 0 16C0 24.8366 7.16346 32 16 32ZM8 12.6053C8 10.0659 10.0661 8 12.6053 8H19.3947C21.9342 8 24 10.0661 24 12.6053V19.4569C24 21.9962 21.9342 24.0623 19.3947 24.0623H12.6053C10.0659 24.0623 8 21.9962 8 19.4569V12.6053ZM11.8363 16.0017C11.8363 13.7231 13.71 11.8695 16.0127 11.8695C18.3154 11.8695 20.1891 13.7231 20.1891 16.0017C20.1891 18.2801 18.3154 20.1337 16.0127 20.1337C13.7098 20.1337 11.8363 18.2801 11.8363 16.0017ZM13.3575 16.0017C13.3575 17.4411 14.5485 18.6124 16.0127 18.6124C17.4769 18.6124 18.6679 17.4413 18.6679 16.0017C18.6679 14.5621 17.4767 13.391 16.0127 13.391C14.5485 13.391 13.3575 14.5621 13.3575 16.0017ZM20.2639 12.6834C20.8066 12.6834 21.2466 12.2434 21.2466 11.7007C21.2466 11.158 20.8066 10.718 20.2639 10.718C19.7212 10.718 19.2813 11.158 19.2813 11.7007C19.2813 12.2434 19.7212 12.6834 20.2639 12.6834Z" fill="#00EAFF"/>
</g>
</g>
<defs>
<clipPath id="clip0_95_83">
<rect width="32" height="32" fill="white"/>
</clipPath>
</defs>
</svg>
