<svg width="16" height="16" viewBox="0 0 16 16" fill="none" xmlns="http://www.w3.org/2000/svg">
<path d="M9.10002 0.553107C9.05627 0.596858 3.54064 8.43123 3.08127 9.10623C2.98127 9.25623 2.97814 9.34686 3.07502 9.45936L3.15002 9.54686L4.96564 9.55623L6.78127 9.56561V9.65311C6.78127 9.69998 6.71877 10.9594 6.64064 12.45C6.56252 13.9437 6.50002 15.2031 6.50002 15.2562C6.50002 15.45 6.74377 15.5687 6.89377 15.4437C6.94064 15.4031 12.3938 7.66561 12.9188 6.89373C13.0188 6.74373 13.0219 6.65311 12.925 6.54061L12.85 6.45311L11.0344 6.44373L9.21877 6.43436V6.34686C9.21877 6.29686 9.28127 5.03748 9.35939 3.54373C9.43752 2.05311 9.50002 0.793733 9.50002 0.743732C9.50002 0.549983 9.24377 0.428107 9.10002 0.553107Z" fill="#00EAFF"/>
</svg>
