<svg width="35" height="35" viewBox="0 0 35 35" fill="none" xmlns="http://www.w3.org/2000/svg">
<g clip-path="url(#clip0_57_75)">
<path d="M5.83339 8.75001C4.85922 8.75001 3.94339 8.37084 3.25506 7.68251L0.942139 5.37105L1.97318 4.34001L4.2861 6.65146C5.11151 7.47688 6.55381 7.47688 7.37922 6.65146L12.6088 1.42334L13.6398 2.45438L8.41026 7.68251C7.72193 8.37084 6.80756 8.75001 5.83339 8.75001ZM35.0001 5.83334H17.5001V7.29167H35.0001V5.83334ZM8.41172 19.3492L13.6413 14.121L12.6103 13.09L7.38068 18.3181C6.55526 19.1435 5.11297 19.1435 4.28756 18.3181L1.97464 16.0067L0.943597 17.0377L3.25651 19.3492C3.94485 20.0375 4.86068 20.4167 5.83485 20.4167C6.80901 20.4167 7.72339 20.0375 8.41172 19.3492ZM35.0001 17.5H17.5001V18.9583H35.0001V17.5ZM8.41172 31.0158L13.6413 25.7877L12.6103 24.7567L7.38068 29.9848C6.55526 30.8102 5.11297 30.8102 4.28756 29.9848L1.97464 27.6733L0.943597 28.7044L3.25651 31.0158C3.94485 31.7042 4.86068 32.0833 5.83485 32.0833C6.80901 32.0833 7.72339 31.7042 8.41172 31.0158ZM35.0001 29.1667H17.5001V30.625H35.0001V29.1667Z" fill="#00EAFF"/>
</g>
<defs>
<clipPath id="clip0_57_75">
<rect width="35" height="35" fill="white"/>
</clipPath>
</defs>
</svg>
