<svg width="14" height="14" viewBox="0 0 14 14" fill="none" xmlns="http://www.w3.org/2000/svg">
<g clip-path="url(#clip0_57_20)">
<path d="M13.1052 4.93793L9.06269 0.894852C8.51508 0.348845 7.77332 0.0422363 7.00002 0.0422363C6.22672 0.0422363 5.48496 0.348845 4.93735 0.894852L0.894854 4.93793C0.348063 5.48489 0.0408936 6.22662 0.0408936 7.00002C0.0408936 7.77341 0.348063 8.51515 0.894854 9.0621L4.93735 13.1052C5.48489 13.6513 6.22667 13.958 7.00002 13.958C7.77337 13.958 8.51516 13.6513 9.06269 13.1052L13.1052 9.0621C13.652 8.51515 13.9591 7.77341 13.9591 7.00002C13.9591 6.22662 13.652 5.48489 13.1052 4.93793Z" fill="white" fill-opacity="0.5"/>
</g>
<defs>
<clipPath id="clip0_57_20">
<rect width="14" height="14" fill="white"/>
</clipPath>
</defs>
</svg>
