<svg width="19" height="20" viewBox="0 0 19 20" fill="none" xmlns="http://www.w3.org/2000/svg">
<g clip-path="url(#clip0_807_956)">
<path d="M14.2502 0.5C11.6305 0.5 9.50016 2.63038 9.50016 5.25C9.50016 7.86963 11.6305 10 14.2502 10C16.8698 10 19.0002 7.86963 19.0002 5.25C19.0002 2.63038 16.8698 0.5 14.2502 0.5ZM15.1044 7.18246L13.4585 5.58408V2.87421H15.0418V4.91433L16.208 6.04642L15.1044 7.18246ZM13.6414 10.973L18.6012 15.9335L16.4106 18.1241C15.5358 18.9997 14.3523 19.4826 13.0801 19.4826C7.34208 19.4834 0.0175781 12.1589 0.0175781 6.42088C0.0175781 5.14708 0.499703 3.96433 1.37608 3.08954L3.56662 0.899L8.52641 5.85879L5.58062 8.80538C6.66758 11.2287 8.34591 12.911 10.6892 13.9259L13.6422 10.9738L13.6414 10.973Z" fill="white" fill-opacity="0.5"/>
</g>
<defs>
<clipPath id="clip0_807_956">
<rect width="19" height="19" fill="white" transform="translate(0 0.5)"/>
</clipPath>
</defs>
</svg>
