<svg width="35" height="35" viewBox="0 0 35 35" fill="none" xmlns="http://www.w3.org/2000/svg">
<g clip-path="url(#clip0_57_84)">
<path d="M30.625 30.625V35H29.1667V30.625C29.1667 28.2129 27.2038 26.25 24.7917 26.25H10.2083C7.79625 26.25 5.83333 28.2129 5.83333 30.625V35H4.375V30.625C4.375 27.4079 6.99125 24.7917 10.2083 24.7917H24.7917C28.0088 24.7917 30.625 27.4079 30.625 30.625ZM5.83333 13.125H4.375C4.375 9.38873 5.97625 5.81728 8.76604 3.32644C11.5544 0.841442 15.2994 -0.333975 19.0458 0.0889418C24.8748 0.756858 29.6902 5.44977 30.4952 11.2481C30.8102 13.5173 30.5448 15.8185 29.7296 17.9054C28.7992 20.2796 26.374 21.875 23.6965 21.875H17.5015C15.8929 21.875 14.5848 20.5669 14.5848 18.9583C14.5848 17.3498 15.8929 16.0417 17.5015 16.0417C19.11 16.0417 20.4181 17.3498 20.4181 18.9583C20.4181 19.4892 20.2752 19.9879 20.0258 20.4167H23.6965C25.7804 20.4167 27.6588 19.1931 28.3704 17.3731C29.0967 15.5196 29.3315 13.4692 29.0515 11.4479C28.3369 6.29852 24.0581 2.13061 18.881 1.53853C15.4992 1.15061 12.2529 2.17436 9.73729 4.41728C7.25667 6.63103 5.83333 9.80436 5.83333 13.1264V13.125ZM17.5 20.4167C18.3035 20.4167 18.9583 19.7633 18.9583 18.9583C18.9583 18.1533 18.3035 17.5 17.5 17.5C16.6965 17.5 16.0417 18.1533 16.0417 18.9583C16.0417 19.7633 16.6965 20.4167 17.5 20.4167ZM17.5 5.83332C21.5206 5.83332 24.7917 9.10436 24.7917 13.125C24.7917 14.7773 24.2069 16.2764 23.275 17.5H25.0644C25.8154 16.2123 26.2515 14.7204 26.2515 13.125C26.2515 8.29936 22.3271 4.37498 17.5015 4.37498C12.6758 4.37498 8.75146 8.29936 8.75146 13.125C8.75146 15.7442 9.91375 18.0906 11.7425 19.6962C11.7119 19.4527 11.6681 19.2106 11.6681 18.9583C11.6681 18.5062 11.7308 18.0717 11.8285 17.6487C10.831 16.4019 10.2098 14.8414 10.2098 13.125C10.2098 9.10436 13.4808 5.83332 17.5015 5.83332H17.5Z" fill="#00EAFF"/>
</g>
<defs>
<clipPath id="clip0_57_84">
<rect width="35" height="35" fill="white"/>
</clipPath>
</defs>
</svg>
