<svg width="35" height="35" viewBox="0 0 35 35" fill="none" xmlns="http://www.w3.org/2000/svg">
<g clip-path="url(#clip0_57_66)">
<path d="M35 6.5625C35 3.74792 32.7104 1.45833 29.8958 1.45833C27.0813 1.45833 24.7917 3.74792 24.7917 6.5625C24.7917 9.12917 26.6963 11.2598 29.1667 11.6142V25.5208C29.1667 26.7269 28.1852 27.7083 26.9792 27.7083H18.0002L22.4569 23.2517L21.4258 22.2206L16.6775 26.969C16.2677 27.3788 16.0417 27.9242 16.0417 28.5046C16.0417 29.085 16.2677 29.629 16.6775 30.0388L21.4258 34.7871L22.4569 33.756L17.869 29.1681H26.9792C28.9888 29.1681 30.625 27.5319 30.625 25.5223V11.6142C33.0954 11.2598 35 9.12917 35 6.5625ZM29.8958 10.2083C27.8863 10.2083 26.25 8.57208 26.25 6.5625C26.25 4.55292 27.8863 2.91667 29.8958 2.91667C31.9054 2.91667 33.5417 4.55292 33.5417 6.5625C33.5417 8.57208 31.9054 10.2083 29.8958 10.2083ZM18.3225 5.02687L13.5742 0.279999L12.5431 1.31104L17.0669 5.83333H8.02083C6.01125 5.83333 4.375 7.46958 4.375 9.47917V23.3858C1.90458 23.7402 0 25.8708 0 28.4375C0 31.2521 2.28958 33.5417 5.10417 33.5417C7.91875 33.5417 10.2083 31.2521 10.2083 28.4375C10.2083 25.8708 8.30375 23.7402 5.83333 23.3858V9.47917C5.83333 8.27312 6.81479 7.29167 8.02083 7.29167H17.0669L12.5431 11.814L13.5742 12.845L18.3225 8.09812C19.1698 7.25083 19.1698 5.87271 18.3225 5.02687ZM8.75 28.4375C8.75 30.4471 7.11375 32.0833 5.10417 32.0833C3.09458 32.0833 1.45833 30.4471 1.45833 28.4375C1.45833 26.4279 3.09458 24.7917 5.10417 24.7917C7.11375 24.7917 8.75 26.4279 8.75 28.4375Z" fill="#00EAFF"/>
</g>
<defs>
<clipPath id="clip0_57_66">
<rect width="35" height="35" fill="white"/>
</clipPath>
</defs>
</svg>
