<svg width="19" height="20" viewBox="0 0 19 20" fill="none" xmlns="http://www.w3.org/2000/svg">
<g clip-path="url(#clip0_648_808)">
<path d="M16.6252 17.125V19.5H2.37516V17.125C2.37516 15.3786 3.79541 13.9583 5.54183 13.9583H13.4585C15.2049 13.9583 16.6252 15.3786 16.6252 17.125ZM17.4168 5.25V9.20833H15.8335V12.375H3.16683V9.20833H1.5835V5.25H3.16683V4.45833C3.16683 3.14892 4.23241 2.08333 5.54183 2.08333H8.7085V0.5H10.2918V2.08333H13.4585C14.7679 2.08333 15.8335 3.14892 15.8335 4.45833V5.25H17.4168ZM8.7085 7.22917C8.7085 6.57367 8.1765 6.04167 7.521 6.04167C6.8655 6.04167 6.3335 6.57367 6.3335 7.22917C6.3335 7.88467 6.8655 8.41667 7.521 8.41667C8.1765 8.41667 8.7085 7.88467 8.7085 7.22917ZM12.6668 7.22917C12.6668 6.57367 12.1348 6.04167 11.4793 6.04167C10.8238 6.04167 10.2918 6.57367 10.2918 7.22917C10.2918 7.88467 10.8238 8.41667 11.4793 8.41667C12.1348 8.41667 12.6668 7.88467 12.6668 7.22917Z" fill="white" fill-opacity="0.5"/>
</g>
<defs>
<clipPath id="clip0_648_808">
<rect width="19" height="19" fill="white" transform="translate(0 0.5)"/>
</clipPath>
</defs>
</svg>
