<svg width="35" height="35" viewBox="0 0 35 35" fill="none" xmlns="http://www.w3.org/2000/svg">
<g clip-path="url(#clip0_490_140)">
<path d="M20.4167 17.5C20.4167 15.8915 19.1085 14.5833 17.5 14.5833C15.8915 14.5833 14.5833 15.8915 14.5833 17.5C14.5833 19.1085 15.8915 20.4167 17.5 20.4167C19.1085 20.4167 20.4167 19.1085 20.4167 17.5ZM16.0417 17.5C16.0417 16.695 16.695 16.0417 17.5 16.0417C18.305 16.0417 18.9583 16.695 18.9583 17.5C18.9583 18.305 18.305 18.9583 17.5 18.9583C16.695 18.9583 16.0417 18.305 16.0417 17.5ZM10.2083 14.5833C11.8169 14.5833 13.125 13.2752 13.125 11.6667C13.125 10.0581 11.8169 8.75 10.2083 8.75C8.59979 8.75 7.29167 10.0581 7.29167 11.6667C7.29167 13.2752 8.59979 14.5833 10.2083 14.5833ZM10.2083 10.2083C11.0133 10.2083 11.6667 10.8617 11.6667 11.6667C11.6667 12.4717 11.0133 13.125 10.2083 13.125C9.40333 13.125 8.75 12.4717 8.75 11.6667C8.75 10.8617 9.40333 10.2083 10.2083 10.2083ZM29.1667 10.2083C31.5788 10.2083 33.5417 8.24542 33.5417 5.83333C33.5417 3.42125 31.5788 1.45833 29.1667 1.45833C26.7546 1.45833 24.7917 3.42125 24.7917 5.83333C24.7917 8.24542 26.7546 10.2083 29.1667 10.2083ZM29.1667 2.91667C30.7752 2.91667 32.0833 4.22479 32.0833 5.83333C32.0833 7.44188 30.7752 8.75 29.1667 8.75C27.5581 8.75 26.25 7.44188 26.25 5.83333C26.25 4.22479 27.5581 2.91667 29.1667 2.91667ZM17.5 7.29167C23.1277 7.29167 27.7083 11.8723 27.7083 17.5C27.7083 23.1277 23.1277 27.7083 17.5 27.7083C11.8723 27.7083 7.29167 23.1277 7.29167 17.5C7.29167 17.2331 7.31208 16.9721 7.33104 16.711C7.77583 16.9662 8.25125 17.166 8.76021 17.2973C8.75875 17.3658 8.75 17.4329 8.75 17.5015C8.75 22.3271 12.6744 26.2515 17.5 26.2515C22.3256 26.2515 26.25 22.3271 26.25 17.5015C26.25 12.6758 22.3256 8.75146 17.5 8.75146C16.7665 8.75146 16.0592 8.85208 15.3781 9.02271C15.139 8.5575 14.8473 8.12729 14.4973 7.74521C15.4467 7.45208 16.4558 7.29167 17.5 7.29167ZM35 17.5C35 27.1498 27.1498 35 17.5 35C7.85021 35 0 27.1498 0 17.5C0 7.85021 7.85021 0 17.5 0C19.6613 0 21.7233 0.412708 23.6352 1.13167C23.31 1.51375 23.0271 1.92792 22.785 2.37125C21.1269 1.78938 19.3535 1.45833 17.4985 1.45833C8.65521 1.45833 1.45833 8.65521 1.45833 17.5C1.45833 26.3448 8.65521 33.5417 17.5 33.5417C26.3448 33.5417 33.5417 26.3448 33.5417 17.5C33.5417 15.6465 33.2092 13.8717 32.6287 12.2135C33.0735 11.9715 33.4863 11.69 33.8683 11.3633C34.5873 13.2767 35 15.3373 35 17.4985V17.5Z" fill="#00EAFF"/>
</g>
<defs>
<clipPath id="clip0_490_140">
<rect width="35" height="35" fill="white"/>
</clipPath>
</defs>
</svg>
