<svg width="24" height="25" viewBox="0 0 24 25" fill="none" xmlns="http://www.w3.org/2000/svg">
<g clip-path="url(#clip0_68_37)">
<path d="M24 22.5C24 23.605 23.105 24.5 22 24.5C21.262 24.5 20.624 24.095 20.277 23.5H16V14.5H18V21.5H20.277C20.623 20.905 21.261 20.5 22 20.5C23.105 20.5 24 21.395 24 22.5ZM13 20.777V14.5H11V20.777C10.405 21.123 10 21.761 10 22.5C10 23.605 10.895 24.5 12 24.5C13.105 24.5 14 23.605 14 22.5C14 21.762 13.595 21.124 13 20.777ZM6 21.5H3.723C3.377 20.905 2.739 20.5 2 20.5C0.895 20.5 0 21.395 0 22.5C0 23.605 0.895 24.5 2 24.5C2.738 24.5 3.376 24.095 3.723 23.5H8V14.5H6V21.5ZM18.341 5.337C17.085 2.423 14.199 0.5 11 0.5C6.589 0.5 3 4.089 3 8.5C3 8.824 3.021 9.15 3.061 9.476C1.774 10.41 1 11.894 1 13.5C1 15.544 2.239 17.293 4 18.068V12.5H20V17.341C21.803 16.129 23 14.081 23 11.75C23 8.799 21.109 6.233 18.341 5.337Z" fill="url(#paint0_linear_68_37)"/>
</g>
<defs>
<linearGradient id="paint0_linear_68_37" x1="12" y1="0.5" x2="12" y2="24.5" gradientUnits="userSpaceOnUse">
<stop/>
<stop offset="1" stop-color="#666666"/>
</linearGradient>
<clipPath id="clip0_68_37">
<rect width="24" height="24" fill="white" transform="translate(0 0.5)"/>
</clipPath>
</defs>
</svg>
