<svg width="32" height="32" viewBox="0 0 32 32" fill="none" xmlns="http://www.w3.org/2000/svg">
<g clip-path="url(#clip0_95_212)">
<mask id="mask0_95_212" style="mask-type:luminance" maskUnits="userSpaceOnUse" x="0" y="0" width="32" height="32">
<path d="M32 0H0V32H32V0Z" fill="white"/>
</mask>
<g mask="url(#mask0_95_212)">
<path fill-rule="evenodd" clip-rule="evenodd" d="M16 32C24.8365 32 32 24.8365 32 16C32 7.16352 24.8365 0 16 0C7.16352 0 0 7.16352 0 16C0 24.8365 7.16352 32 16 32ZM23.0326 10.2221C23.1562 8.82048 21.6758 9.39776 21.6758 9.39776C20.583 9.85024 19.456 10.3098 18.3168 10.7744C14.784 12.2154 11.1347 13.704 8.02592 15.1693C6.34016 15.7875 7.32704 16.4058 7.32704 16.4058L9.99936 17.2304C11.233 17.6016 11.8906 17.1891 11.8906 17.1891L17.6467 13.273C19.7024 11.8714 19.209 13.0256 18.7155 13.5203L14.3987 17.6426C13.7408 18.2198 14.0698 18.7146 14.3574 18.9619C15.1734 19.6816 17.1798 20.9984 18.0557 21.5731C18.2835 21.7226 18.4349 21.8221 18.4691 21.8477C18.6746 22.0125 19.7846 22.7546 20.5248 22.5898C21.265 22.4246 21.3472 21.4765 21.3472 21.4765L22.3338 15.0042C22.4816 13.8806 22.6515 12.8006 22.7872 11.9379C22.9152 11.1232 23.0128 10.5027 23.0326 10.2221Z" fill="white"/>
</g>
</g>
<defs>
<clipPath id="clip0_95_212">
<rect width="32" height="32" fill="white"/>
</clipPath>
</defs>
</svg>
