<svg width="35" height="35" viewBox="0 0 35 35" fill="none" xmlns="http://www.w3.org/2000/svg">
<path d="M10.2083 7.29167C11.4319 7.29167 12.5373 7.79917 13.3321 8.61292C12.931 8.89438 12.5635 9.21667 12.2267 9.56958C11.7017 9.065 10.9929 8.75 10.2083 8.75C8.59979 8.75 7.29167 10.0581 7.29167 11.6667C7.29167 13.2752 8.59979 14.5833 10.2083 14.5833C10.2083 15.0777 10.2594 15.5604 10.3542 16.0271C10.3046 16.0285 10.2579 16.0417 10.2083 16.0417C7.79625 16.0417 5.83333 14.0788 5.83333 11.6667C5.83333 9.25458 7.79625 7.29167 10.2083 7.29167ZM24.7917 8.75C26.4002 8.75 27.7083 10.0581 27.7083 11.6667C27.7083 13.2752 26.4002 14.5833 24.7917 14.5833C24.7917 15.0777 24.7406 15.5604 24.6458 16.0271C24.6954 16.0285 24.7421 16.0417 24.7917 16.0417C27.2038 16.0417 29.1667 14.0788 29.1667 11.6667C29.1667 9.25458 27.2038 7.29167 24.7917 7.29167C23.5681 7.29167 22.4627 7.79917 21.6679 8.61292C22.069 8.89438 22.4365 9.21667 22.7733 9.56958C23.2983 9.065 24.0071 8.75 24.7917 8.75ZM13.125 14.5833C13.125 12.1713 15.0879 10.2083 17.5 10.2083C19.9121 10.2083 21.875 12.1713 21.875 14.5833C21.875 16.9954 19.9121 18.9583 17.5 18.9583C15.0879 18.9583 13.125 16.9954 13.125 14.5833ZM14.5833 14.5833C14.5833 16.1919 15.8915 17.5 17.5 17.5C19.1085 17.5 20.4167 16.1919 20.4167 14.5833C20.4167 12.9748 19.1085 11.6667 17.5 11.6667C15.8915 11.6667 14.5833 12.9748 14.5833 14.5833ZM1.45833 3.64583C1.45833 2.43979 2.43979 1.45833 3.64583 1.45833H10.2083V0H3.64583C1.63625 0 0 1.63479 0 3.64583V10.2083H1.45833V3.64583ZM1.45833 31.3542V24.7917H0V31.3542C0 33.3652 1.63625 35 3.64583 35H10.2083V33.5417H3.64583C2.43979 33.5417 1.45833 32.5602 1.45833 31.3542ZM33.5417 31.3542C33.5417 32.5602 32.5602 33.5417 31.3542 33.5417H24.7917V35H31.3542C33.3638 35 35 33.3652 35 31.3542V24.7917H33.5417V31.3542ZM31.3542 0H24.7917V1.45833H31.3542C32.5602 1.45833 33.5417 2.43979 33.5417 3.64583V10.2083H35V3.64583C35 1.63479 33.3638 0 31.3542 0ZM19.6875 21.875H15.3125C13.3029 21.875 11.6667 23.5098 11.6667 25.5208V27.7083H13.125V25.5208C13.125 24.3148 14.1065 23.3333 15.3125 23.3333H19.6875C20.8935 23.3333 21.875 24.3148 21.875 25.5208V27.7083H23.3333V25.5208C23.3333 23.5098 21.6971 21.875 19.6875 21.875ZM29.1667 22.6042V24.7917H30.625V22.6042C30.625 20.5931 28.9888 18.9583 26.9792 18.9583H22.6042C22.1594 18.9583 21.7379 19.0502 21.3442 19.196C22.2425 19.4323 23.0563 19.8523 23.7621 20.4167H26.9792C28.1852 20.4167 29.1667 21.3981 29.1667 22.6042ZM12.3958 18.9583H8.02083C6.01125 18.9583 4.375 20.5931 4.375 22.6042V24.7917H5.83333V22.6042C5.83333 21.3981 6.81479 20.4167 8.02083 20.4167H11.2379C11.9423 19.8523 12.7575 19.4323 13.6558 19.196C13.2621 19.0502 12.8406 18.9583 12.3958 18.9583Z" fill="url(#paint0_linear_57_94)"/>
<defs>
<linearGradient id="paint0_linear_57_94" x1="17.5" y1="0" x2="17.5" y2="35" gradientUnits="userSpaceOnUse">
<stop stop-color="#00EAFF"/>
</linearGradient>
</defs>
</svg>
