<svg width="24" height="22" viewBox="0 0 24 22" fill="none" xmlns="http://www.w3.org/2000/svg">
<path d="M24 7V5C24 2.24 21.76 0 19 0H5C2.24 0 0 2.24 0 5V7H24ZM19.5 2C20.33 2 21 2.67 21 3.5C21 4.33 20.33 5 19.5 5C18.67 5 18 4.33 18 3.5C18 2.67 18.67 2 19.5 2ZM15.5 2C16.33 2 17 2.67 17 3.5C17 4.33 16.33 5 15.5 5C14.67 5 14 4.33 14 3.5C14 2.67 14.67 2 15.5 2ZM11.5 2C12.33 2 13 2.67 13 3.5C13 4.33 12.33 5 11.5 5C10.67 5 10 4.33 10 3.5C10 2.67 10.67 2 11.5 2ZM24 9V17C24 19.76 21.76 22 19 22H5C2.24 22 0 19.76 0 17V9H24Z" fill="#00EAFF"/>
</svg>
