<svg width="379" height="398" viewBox="0 0 379 398" fill="none" xmlns="http://www.w3.org/2000/svg">
<g opacity="0.5">
<g clip-path="url(#clip0_939_1779)">
<mask id="mask0_939_1779" style="mask-type:alpha" maskUnits="userSpaceOnUse" x="11" y="0" width="368" height="397">
<path d="M379 0H11V397H379V0Z" fill="#181818"/>
</mask>
<g mask="url(#mask0_939_1779)">
</g>
<g clip-path="url(#clip1_939_1779)">
<mask id="mask1_939_1779" style="mask-type:alpha" maskUnits="userSpaceOnUse" x="-339" y="-53" width="771" height="450">
<path d="M432 -53H-338.608V397H432V-53Z" fill="#181818"/>
</mask>
<g mask="url(#mask1_939_1779)">
<g opacity="0.55">
<path d="M152 75.4077C152 66.9972 158.826 60.1782 167.244 60.1782H447.756C456.174 60.1782 463 66.9972 463 75.4077V84.0023H152V75.4077Z" fill="#4E4E4E"/>
<path d="M447.755 60.8127H167.244C159.175 60.8127 152.635 67.3471 152.635 75.4077V423.148C152.635 431.209 159.175 437.743 167.244 437.743H447.755C455.824 437.743 462.364 431.209 462.364 423.148V75.4077C462.364 67.3471 455.824 60.8127 447.755 60.8127Z" stroke="#4E4E4E"/>
<path d="M184.789 76.0619C186.436 76.0619 187.77 74.7286 187.77 73.0839C187.77 71.4392 186.436 70.106 184.789 70.106C183.143 70.106 181.809 71.4392 181.809 73.0839C181.809 74.7286 183.143 76.0619 184.789 76.0619Z" fill="#181818"/>
<path d="M166.905 76.0619C168.551 76.0619 169.886 74.7286 169.886 73.0839C169.886 71.4392 168.551 70.106 166.905 70.106C165.258 70.106 163.924 71.4392 163.924 73.0839C163.924 74.7286 165.258 76.0619 166.905 76.0619Z" fill="#181818"/>
<path d="M175.848 76.0619C177.494 76.0619 178.829 74.7286 178.829 73.0839C178.829 71.4392 177.494 70.106 175.848 70.106C174.202 70.106 172.867 71.4392 172.867 73.0839C172.867 74.7286 174.202 76.0619 175.848 76.0619Z" fill="#181818"/>
<path d="M190.254 113.783C194.919 113.783 198.7 110.005 198.7 105.345C198.7 100.685 194.919 96.9077 190.254 96.9077C185.59 96.9077 181.809 100.685 181.809 105.345C181.809 110.005 185.59 113.783 190.254 113.783Z" fill="#4E4E4E"/>
<path d="M225.252 97.8989H202.953C202.251 97.8989 201.683 98.4671 201.683 99.1681V103.578C201.683 104.279 202.251 104.847 202.953 104.847H225.252C225.954 104.847 226.523 104.279 226.523 103.578V99.1681C226.523 98.4671 225.954 97.8989 225.252 97.8989Z" fill="#4E4E4E"/>
<path d="M286.302 132.643H185.621C183.516 132.643 181.81 134.347 181.81 136.45V145.711C181.81 147.813 183.516 149.518 185.621 149.518H286.302C288.407 149.518 290.113 147.813 290.113 145.711V136.45C290.113 134.347 288.407 132.643 286.302 132.643Z" fill="#4E4E4E"/>
<path d="M412.282 122.065L344.586 116.675C338.292 116.173 332.783 120.865 332.281 127.153L324.792 221.025C324.291 227.313 328.987 232.817 335.281 233.318L402.976 238.708C409.271 239.21 414.78 234.518 415.282 228.23L422.77 134.358C423.272 128.07 418.576 122.566 412.282 122.065Z" fill="#4E4E4E"/>
<path d="M286.302 151.502H185.621C183.516 151.502 181.81 153.207 181.81 155.31V160.599C181.81 162.702 183.516 164.407 185.621 164.407H286.302C288.407 164.407 290.113 162.702 290.113 160.599V155.31C290.113 153.207 288.407 151.502 286.302 151.502Z" fill="#4E4E4E"/>
<path d="M286.302 274.589H185.621C183.516 274.589 181.81 276.294 181.81 278.397V283.686C181.81 285.789 183.516 287.494 185.621 287.494H286.302C288.407 287.494 290.113 285.789 290.113 283.686V278.397C290.113 276.294 288.407 274.589 286.302 274.589Z" fill="#4E4E4E"/>
<path d="M238.609 206.099H185.621C183.516 206.099 181.81 207.803 181.81 209.906V218.174C181.81 220.276 183.516 221.981 185.621 221.981H238.609C240.713 221.981 242.42 220.276 242.42 218.174V209.906C242.42 207.803 240.713 206.099 238.609 206.099Z" fill="#4E4E4E"/>
<path d="M212.221 312.311H188.161C184.653 312.311 181.81 315.152 181.81 318.656V342.693C181.81 346.198 184.653 349.039 188.161 349.039H212.221C215.729 349.039 218.573 346.198 218.573 342.693V318.656C218.573 315.152 215.729 312.311 212.221 312.311Z" fill="#4E4E4E"/>
<path d="M301.646 312.311H277.586C274.078 312.311 271.234 315.152 271.234 318.656V342.693C271.234 346.198 274.078 349.039 277.586 349.039H301.646C305.154 349.039 307.998 346.198 307.998 342.693V318.656C307.998 315.152 305.154 312.311 301.646 312.311Z" fill="#4E4E4E"/>
<path d="M394.054 312.311H369.994C366.486 312.311 363.643 315.152 363.643 318.656V342.693C363.643 346.198 366.486 349.039 369.994 349.039H394.054C397.562 349.039 400.406 346.198 400.406 342.693V318.656C400.406 315.152 397.562 312.311 394.054 312.311Z" fill="#4E4E4E"/>
<path d="M288.843 174.332H183.08C182.378 174.332 181.81 174.9 181.81 175.601V179.019C181.81 179.72 182.378 180.288 183.08 180.288H288.843C289.544 180.288 290.113 179.72 290.113 179.019V175.601C290.113 174.9 289.544 174.332 288.843 174.332Z" fill="#4E4E4E"/>
<path d="M257.047 359.957H183.08C182.378 359.957 181.81 360.525 181.81 361.226V367.622C181.81 368.323 182.378 368.891 183.08 368.891H257.047C257.749 368.891 258.317 368.323 258.317 367.622V361.226C258.317 360.525 257.749 359.957 257.047 359.957Z" fill="#4E4E4E"/>
<path d="M346.472 359.957H272.505C271.803 359.957 271.234 360.525 271.234 361.226V367.622C271.234 368.323 271.803 368.891 272.505 368.891H346.472C347.173 368.891 347.742 368.323 347.742 367.622V361.226C347.742 360.525 347.173 359.957 346.472 359.957Z" fill="#4E4E4E"/>
<path d="M438.88 359.957H364.913C364.211 359.957 363.643 360.525 363.643 361.226V367.622C363.643 368.323 364.211 368.891 364.913 368.891H438.88C439.582 368.891 440.15 368.323 440.15 367.622V361.226C440.15 360.525 439.582 359.957 438.88 359.957Z" fill="#4E4E4E"/>
<path d="M346.472 371.87H272.505C271.803 371.87 271.234 372.439 271.234 373.139V376.557C271.234 377.258 271.803 377.826 272.505 377.826H346.472C347.173 377.826 347.742 377.258 347.742 376.557V373.139C347.742 372.439 347.173 371.87 346.472 371.87Z" fill="#4E4E4E"/>
<path d="M257.047 371.87H183.08C182.378 371.87 181.81 372.439 181.81 373.139V376.557C181.81 377.258 182.378 377.826 183.08 377.826H257.047C257.749 377.826 258.317 377.258 258.317 376.557V373.139C258.317 372.439 257.749 371.87 257.047 371.87Z" fill="#4E4E4E"/>
<path d="M340.51 382.789H272.505C271.803 382.789 271.234 383.357 271.234 384.058V387.475C271.234 388.176 271.803 388.744 272.505 388.744H340.51C341.212 388.744 341.781 388.176 341.781 387.475V384.058C341.781 383.357 341.212 382.789 340.51 382.789Z" fill="#4E4E4E"/>
<path d="M438.88 371.87H364.913C364.211 371.87 363.643 372.439 363.643 373.139V376.557C363.643 377.258 364.211 377.826 364.913 377.826H438.88C439.582 377.826 440.15 377.258 440.15 376.557V373.139C440.15 372.439 439.582 371.87 438.88 371.87Z" fill="#4E4E4E"/>
<path d="M251.085 382.789H183.08C182.378 382.789 181.81 383.357 181.81 384.058V387.475C181.81 388.176 182.378 388.744 183.08 388.744H251.085C251.787 388.744 252.356 388.176 252.356 387.475V384.058C252.356 383.357 251.787 382.789 251.085 382.789Z" fill="#4E4E4E"/>
<path d="M432.918 382.789H364.913C364.211 382.789 363.643 383.357 363.643 384.058V387.475C363.643 388.176 364.211 388.744 364.913 388.744H432.918C433.62 388.744 434.189 388.176 434.189 387.475V384.058C434.189 383.357 433.62 382.789 432.918 382.789Z" fill="#4E4E4E"/>
<path d="M276.919 184.261H183.08C182.378 184.261 181.81 184.829 181.81 185.53V188.947C181.81 189.648 182.378 190.217 183.08 190.217H276.919C277.621 190.217 278.19 189.648 278.19 188.947V185.53C278.19 184.829 277.621 184.261 276.919 184.261Z" fill="#4E4E4E"/>
<path d="M288.843 194.186H183.08C182.378 194.186 181.81 194.754 181.81 195.455V198.873C181.81 199.574 182.378 200.142 183.08 200.142H288.843C289.544 200.142 290.113 199.574 290.113 198.873V195.455C290.113 194.754 289.544 194.186 288.843 194.186Z" fill="#4E4E4E"/>
<path d="M225.252 106.833H202.953C202.251 106.833 201.683 107.401 201.683 108.102V112.512C201.683 113.213 202.251 113.781 202.953 113.781H225.252C225.954 113.781 226.523 113.213 226.523 112.512V108.102C226.523 107.401 225.954 106.833 225.252 106.833Z" fill="#4E4E4E"/>
</g>
<path d="M305.165 194.5H36.3477C28.6157 194.5 22.3477 200.762 22.3477 208.486V541.73C22.3477 549.454 28.6157 555.716 36.3477 555.716H305.165C312.897 555.716 319.165 549.454 319.165 541.73V208.486C319.165 200.762 312.897 194.5 305.165 194.5Z" fill="#181818" stroke="#363636"/>
<path d="M21.7393 208.486C21.7393 200.427 28.2803 193.892 36.348 193.892H305.165C313.233 193.892 319.774 200.427 319.774 208.486V216.723H21.7393V208.486Z" fill="#363636"/>
<path d="M53.1613 209.113C54.7389 209.113 56.0178 207.836 56.0178 206.26C56.0178 204.683 54.7389 203.406 53.1613 203.406C51.5836 203.406 50.3047 204.683 50.3047 206.26C50.3047 207.836 51.5836 209.113 53.1613 209.113Z" fill="#181818"/>
<path d="M36.0226 209.113C37.6002 209.113 38.8791 207.836 38.8791 206.26C38.8791 204.683 37.6002 203.406 36.0226 203.406C34.4449 203.406 33.166 204.683 33.166 206.26C33.166 207.836 34.4449 209.113 36.0226 209.113Z" fill="#181818"/>
<path d="M44.5929 209.113C46.1705 209.113 47.4495 207.836 47.4495 206.26C47.4495 204.683 46.1705 203.406 44.5929 203.406C43.0153 203.406 41.7363 204.683 41.7363 206.26C41.7363 207.836 43.0153 209.113 44.5929 209.113Z" fill="#181818"/>
<path d="M58.3983 245.262C62.8682 245.262 66.4918 241.641 66.4918 237.176C66.4918 232.71 62.8682 229.09 58.3983 229.09C53.9283 229.09 50.3047 232.71 50.3047 237.176C50.3047 241.641 53.9283 245.262 58.3983 245.262Z" fill="#363636"/>
<path d="M91.9378 230.04H70.568C69.8956 230.04 69.3506 230.585 69.3506 231.256V235.483C69.3506 236.154 69.8956 236.699 70.568 236.699H91.9378C92.6102 236.699 93.1552 236.154 93.1552 235.483V231.256C93.1552 230.585 92.6102 230.04 91.9378 230.04Z" fill="#363636"/>
<path d="M150.442 263.335H53.9578C51.9408 263.335 50.3057 264.969 50.3057 266.984V275.858C50.3057 277.873 51.9408 279.507 53.9578 279.507H150.442C152.459 279.507 154.094 277.873 154.094 275.858V266.984C154.094 264.969 152.459 263.335 150.442 263.335Z" fill="#363636"/>
<path d="M271.17 253.198L206.297 248.033C200.265 247.553 194.985 252.049 194.505 258.075L187.328 348.033C186.847 354.059 191.347 359.334 197.379 359.814L262.252 364.979C268.284 365.46 273.564 360.964 274.045 354.938L281.221 264.979C281.702 258.953 277.202 253.679 271.17 253.198Z" fill="#363636"/>
<path d="M150.442 281.408H53.9578C51.9408 281.408 50.3057 283.042 50.3057 285.057V290.126C50.3057 292.141 51.9408 293.775 53.9578 293.775H150.442C152.459 293.775 154.094 292.141 154.094 290.126V285.057C154.094 283.042 152.459 281.408 150.442 281.408Z" fill="#363636"/>
<path d="M104.737 333.729H53.9578C51.9408 333.729 50.3057 335.362 50.3057 337.377V345.3C50.3057 347.315 51.9408 348.949 53.9578 348.949H104.737C106.754 348.949 108.389 347.315 108.389 345.3V337.377C108.389 335.362 106.754 333.729 104.737 333.729Z" fill="#363636"/>
<path d="M152.876 303.287H51.5231C50.8507 303.287 50.3057 303.831 50.3057 304.503V307.778C50.3057 308.45 50.8507 308.994 51.5231 308.994H152.876C153.549 308.994 154.094 308.45 154.094 307.778V304.503C154.094 303.831 153.549 303.287 152.876 303.287Z" fill="#363636"/>
<path d="M141.45 312.801H51.5231C50.8507 312.801 50.3057 313.346 50.3057 314.017V317.293C50.3057 317.964 50.8507 318.509 51.5231 318.509H141.45C142.123 318.509 142.668 317.964 142.668 317.293V314.017C142.668 313.346 142.123 312.801 141.45 312.801Z" fill="#363636"/>
<path d="M152.876 322.312H51.5231C50.8507 322.312 50.3057 322.857 50.3057 323.528V326.803C50.3057 327.475 50.8507 328.02 51.5231 328.02H152.876C153.549 328.02 154.094 327.475 154.094 326.803V323.528C154.094 322.857 153.549 322.312 152.876 322.312Z" fill="#363636"/>
<path d="M91.9378 238.601H70.568C69.8956 238.601 69.3506 239.146 69.3506 239.817V244.044C69.3506 244.715 69.8956 245.26 70.568 245.26H91.9378C92.6102 245.26 93.1552 244.715 93.1552 244.044V239.817C93.1552 239.146 92.6102 238.601 91.9378 238.601Z" fill="#363636"/>
</g>
</g>
</g>
</g>
<defs>
<clipPath id="clip0_939_1779">
<rect width="379" height="398" rx="30" fill="white"/>
</clipPath>
<clipPath id="clip1_939_1779">
<rect width="448" height="450" fill="white" transform="translate(-16 -53)"/>
</clipPath>
</defs>
</svg>

