<svg width="379" height="398" viewBox="0 0 379 398" fill="none" xmlns="http://www.w3.org/2000/svg">
<g opacity="0.5">
<g clip-path="url(#clip0_939_1436)">
<mask id="mask0_939_1436" style="mask-type:alpha" maskUnits="userSpaceOnUse" x="-367" y="-42" width="746" height="439">
<path d="M379 -41.5854H-366.629V397H379V-41.5854Z" fill="#181818"/>
</mask>
<g mask="url(#mask0_939_1436)">
<g opacity="0.55">
<path d="M87 72.264C87 63.8345 93.7916 57 102.168 57H381.281C389.658 57 396.45 63.8345 396.45 72.264V80.878H87V72.264Z" fill="#4E4E4E"/>
<path d="M381.282 58.926H102.169C94.1409 58.926 87.6328 65.4752 87.6328 73.554V422.082C87.6328 430.161 94.1409 436.71 102.169 436.71H381.282C389.31 436.71 395.818 430.161 395.818 422.082V73.554C395.818 65.4752 389.31 58.926 381.282 58.926Z" stroke="#4E4E4E"/>
<path d="M119.626 74.2096C121.264 74.2096 122.592 72.8733 122.592 71.2249C122.592 69.5765 121.264 68.2402 119.626 68.2402C117.988 68.2402 116.66 69.5765 116.66 71.2249C116.66 72.8733 117.988 74.2096 119.626 74.2096Z" fill="#181818"/>
<path d="M101.832 74.2096C103.47 74.2096 104.798 72.8733 104.798 71.2249C104.798 69.5765 103.47 68.2402 101.832 68.2402C100.194 68.2402 98.8662 69.5765 98.8662 71.2249C98.8662 72.8733 100.194 74.2096 101.832 74.2096Z" fill="#181818"/>
<path d="M110.729 74.2094C112.367 74.2094 113.695 72.8731 113.695 71.2247C113.695 69.5763 112.367 68.24 110.729 68.24C109.091 68.24 107.763 69.5763 107.763 71.2247C107.763 72.8731 109.091 74.2094 110.729 74.2094Z" fill="#181818"/>
<path d="M125.064 112.014C129.705 112.014 133.467 108.228 133.467 103.558C133.467 98.8872 129.705 95.1011 125.064 95.1011C120.423 95.1011 116.66 98.8872 116.66 103.558C116.66 108.228 120.423 112.014 125.064 112.014Z" fill="#4E4E4E"/>
<path d="M159.888 96.0947H137.7C137.001 96.0947 136.436 96.6642 136.436 97.3667V101.787C136.436 102.49 137.001 103.059 137.7 103.059H159.888C160.586 103.059 161.152 102.49 161.152 101.787V97.3667C161.152 96.6642 160.586 96.0947 159.888 96.0947Z" fill="#4E4E4E"/>
<path d="M220.632 130.919H120.452C118.358 130.919 116.66 132.627 116.66 134.735V144.016C116.66 146.123 118.358 147.832 120.452 147.832H220.632C222.726 147.832 224.424 146.123 224.424 144.016V134.735C224.424 132.627 222.726 130.919 220.632 130.919Z" fill="#4E4E4E"/>
<path d="M345.985 120.317L278.627 114.914C272.364 114.412 266.882 119.114 266.383 125.417L258.932 219.501C258.433 225.804 263.105 231.32 269.368 231.822L336.726 237.225C342.989 237.727 348.471 233.025 348.97 226.722L356.421 132.638C356.921 126.335 352.248 120.819 345.985 120.317Z" fill="#4E4E4E"/>
<path d="M220.632 149.819H120.452C118.358 149.819 116.66 151.528 116.66 153.635V158.937C116.66 161.044 118.358 162.753 120.452 162.753H220.632C222.726 162.753 224.424 161.044 224.424 158.937V153.635C224.424 151.528 222.726 149.819 220.632 149.819Z" fill="#4E4E4E"/>
<path d="M220.632 273.188H120.452C118.358 273.188 116.66 274.896 116.66 277.004V282.306C116.66 284.413 118.358 286.122 120.452 286.122H220.632C222.726 286.122 224.424 284.413 224.424 282.306V277.004C224.424 274.896 222.726 273.188 220.632 273.188Z" fill="#4E4E4E"/>
<path d="M173.176 204.541H120.452C118.358 204.541 116.66 206.249 116.66 208.357V216.643C116.66 218.75 118.358 220.459 120.452 220.459H173.176C175.27 220.459 176.968 218.75 176.968 216.643V208.357C176.968 206.249 175.27 204.541 173.176 204.541Z" fill="#4E4E4E"/>
<path d="M146.92 310.993H122.98C119.49 310.993 116.66 313.84 116.66 317.353V341.444C116.66 344.957 119.49 347.804 122.98 347.804H146.92C150.411 347.804 153.24 344.957 153.24 341.444V317.353C153.24 313.84 150.411 310.993 146.92 310.993Z" fill="#4E4E4E"/>
<path d="M235.9 310.993H211.96C208.469 310.993 205.64 313.84 205.64 317.353V341.444C205.64 344.957 208.469 347.804 211.96 347.804H235.9C239.39 347.804 242.22 344.957 242.22 341.444V317.353C242.22 313.84 239.39 310.993 235.9 310.993Z" fill="#4E4E4E"/>
<path d="M327.848 310.993H303.908C300.417 310.993 297.588 313.84 297.588 317.353V341.444C297.588 344.957 300.417 347.804 303.908 347.804H327.848C331.339 347.804 334.168 344.957 334.168 341.444V317.353C334.168 313.84 331.339 310.993 327.848 310.993Z" fill="#4E4E4E"/>
<path d="M223.16 172.702H117.924C117.226 172.702 116.66 173.272 116.66 173.974V177.4C116.66 178.102 117.226 178.672 117.924 178.672H223.16C223.858 178.672 224.424 178.102 224.424 177.4V173.974C224.424 173.272 223.858 172.702 223.16 172.702Z" fill="#4E4E4E"/>
<path d="M191.523 358.748H117.924C117.226 358.748 116.66 359.317 116.66 360.02V366.43C116.66 367.132 117.226 367.702 117.924 367.702H191.523C192.221 367.702 192.787 367.132 192.787 366.43V360.02C192.787 359.317 192.221 358.748 191.523 358.748Z" fill="#4E4E4E"/>
<path d="M280.502 358.748H206.904C206.206 358.748 205.64 359.317 205.64 360.02V366.43C205.64 367.132 206.206 367.702 206.904 367.702H280.502C281.2 367.702 281.766 367.132 281.766 366.43V360.02C281.766 359.317 281.2 358.748 280.502 358.748Z" fill="#4E4E4E"/>
<path d="M372.45 358.748H298.852C298.154 358.748 297.588 359.317 297.588 360.02V366.43C297.588 367.132 298.154 367.702 298.852 367.702H372.45C373.148 367.702 373.714 367.132 373.714 366.43V360.02C373.714 359.317 373.148 358.748 372.45 358.748Z" fill="#4E4E4E"/>
<path d="M280.502 370.688H206.904C206.206 370.688 205.64 371.257 205.64 371.96V375.385C205.64 376.088 206.206 376.657 206.904 376.657H280.502C281.2 376.657 281.766 376.088 281.766 375.385V371.96C281.766 371.257 281.2 370.688 280.502 370.688Z" fill="#4E4E4E"/>
<path d="M191.523 370.688H117.924C117.226 370.688 116.66 371.257 116.66 371.96V375.385C116.66 376.088 117.226 376.657 117.924 376.657H191.523C192.221 376.657 192.787 376.088 192.787 375.385V371.96C192.787 371.257 192.221 370.688 191.523 370.688Z" fill="#4E4E4E"/>
<path d="M274.57 381.631H206.904C206.206 381.631 205.64 382.2 205.64 382.903V386.328C205.64 387.031 206.206 387.6 206.904 387.6H274.57C275.268 387.6 275.834 387.031 275.834 386.328V382.903C275.834 382.2 275.268 381.631 274.57 381.631Z" fill="#4E4E4E"/>
<path d="M372.45 370.688H298.852C298.154 370.688 297.588 371.257 297.588 371.96V375.385C297.588 376.088 298.154 376.657 298.852 376.657H372.45C373.148 376.657 373.714 376.088 373.714 375.385V371.96C373.714 371.257 373.148 370.688 372.45 370.688Z" fill="#4E4E4E"/>
<path d="M185.591 381.631H117.924C117.226 381.631 116.66 382.2 116.66 382.903V386.328C116.66 387.031 117.226 387.6 117.924 387.6H185.591C186.289 387.6 186.855 387.031 186.855 386.328V382.903C186.855 382.2 186.289 381.631 185.591 381.631Z" fill="#4E4E4E"/>
<path d="M366.518 381.631H298.852C298.154 381.631 297.588 382.2 297.588 382.903V386.328C297.588 387.031 298.154 387.6 298.852 387.6H366.518C367.217 387.6 367.782 387.031 367.782 386.328V382.903C367.782 382.2 367.217 381.631 366.518 381.631Z" fill="#4E4E4E"/>
<path d="M211.296 182.653H117.924C117.226 182.653 116.66 183.223 116.66 183.925V187.351C116.66 188.053 117.226 188.623 117.924 188.623H211.296C211.994 188.623 212.56 188.053 212.56 187.351V183.925C212.56 183.223 211.994 182.653 211.296 182.653Z" fill="#4E4E4E"/>
<path d="M223.16 192.6H117.924C117.226 192.6 116.66 193.17 116.66 193.872V197.298C116.66 198 117.226 198.57 117.924 198.57H223.16C223.858 198.57 224.424 198 224.424 197.298V193.872C224.424 193.17 223.858 192.6 223.16 192.6Z" fill="#4E4E4E"/>
<path d="M159.888 105.051H137.7C137.001 105.051 136.436 105.621 136.436 106.323V110.743C136.436 111.446 137.001 112.015 137.7 112.015H159.888C160.586 112.015 161.152 111.446 161.152 110.743V106.323C161.152 105.621 160.586 105.051 159.888 105.051Z" fill="#4E4E4E"/>
</g>
</g>
</g>
</g>
<defs>
<clipPath id="clip0_939_1436">
<path d="M0 0H349C365.569 0 379 13.4315 379 30V368C379 384.569 365.569 398 349 398H0V0Z" fill="white"/>
</clipPath>
</defs>
</svg>

