<svg width="379" height="398" viewBox="0 0 379 398" fill="none" xmlns="http://www.w3.org/2000/svg">
<mask id="mask0_939_1516" style="mask-type:alpha" maskUnits="userSpaceOnUse" x="11" y="0" width="368" height="397">
<path opacity="0.5" d="M379 0H11V397H379V0Z" fill="#181818"/>
</mask>
<g mask="url(#mask0_939_1516)">
<g opacity="0.55">
<path d="M143.614 69.4607C143.614 61.1405 150.361 54.3948 158.681 54.3948H435.932C444.253 54.3948 450.999 61.1405 450.999 69.4607V77.9629H143.614V69.4607Z" fill="#4E4E4E"/>
<path d="M435.933 55.0225H158.681C150.707 55.0225 144.242 61.4867 144.242 69.4606V413.466C144.242 421.44 150.707 427.904 158.681 427.904H435.933C443.907 427.904 450.372 421.44 450.372 413.466V69.4606C450.372 61.4867 443.907 55.0225 435.933 55.0225Z" stroke="#4E4E4E"/>
<path d="M176.022 70.1077C177.649 70.1077 178.969 68.7888 178.969 67.1618C178.969 65.5348 177.649 64.2158 176.022 64.2158C174.395 64.2158 173.076 65.5348 173.076 67.1618C173.076 68.7888 174.395 70.1077 176.022 70.1077Z" fill="#181818"/>
<path d="M158.346 70.1077C159.973 70.1077 161.292 68.7888 161.292 67.1618C161.292 65.5348 159.973 64.2158 158.346 64.2158C156.718 64.2158 155.399 65.5348 155.399 67.1618C155.399 68.7888 156.718 70.1077 158.346 70.1077Z" fill="#181818"/>
<path d="M167.183 70.1077C168.811 70.1077 170.13 68.7888 170.13 67.1618C170.13 65.5348 168.811 64.2158 167.183 64.2158C165.556 64.2158 164.237 65.5348 164.237 67.1618C164.237 68.7888 165.556 70.1077 167.183 70.1077Z" fill="#181818"/>
<path d="M181.424 107.423C186.034 107.423 189.771 103.686 189.771 99.0764C189.771 94.4665 186.034 90.7295 181.424 90.7295C176.813 90.7295 173.076 94.4665 173.076 99.0764C173.076 103.686 176.813 107.423 181.424 107.423Z" fill="#4E4E4E"/>
<path d="M216.015 91.7104H193.974C193.281 91.7104 192.719 92.2726 192.719 92.9659V97.3289C192.719 98.0223 193.281 98.5844 193.974 98.5844H216.015C216.708 98.5844 217.27 98.0223 217.27 97.3289V92.9659C217.27 92.2726 216.708 91.7104 216.015 91.7104Z" fill="#4E4E4E"/>
<path d="M276.354 126.081H176.843C174.763 126.081 173.076 127.767 173.076 129.848V139.008C173.076 141.089 174.763 142.775 176.843 142.775H276.354C278.434 142.775 280.121 141.089 280.121 139.008V129.848C280.121 127.767 278.434 126.081 276.354 126.081Z" fill="#4E4E4E"/>
<path d="M400.871 115.616L333.963 110.284C327.742 109.788 322.296 114.429 321.8 120.65L314.399 213.514C313.903 219.735 318.544 225.179 324.766 225.675L391.674 231.007C397.895 231.503 403.34 226.862 403.836 220.641L411.238 127.778C411.734 121.557 407.092 116.112 400.871 115.616Z" fill="#4E4E4E"/>
<path d="M276.354 144.737H176.843C174.763 144.737 173.076 146.424 173.076 148.504V153.737C173.076 155.817 174.763 157.503 176.843 157.503H276.354C278.434 157.503 280.121 155.817 280.121 153.737V148.504C280.121 146.424 278.434 144.737 276.354 144.737Z" fill="#4E4E4E"/>
<path d="M276.354 266.503H176.843C174.763 266.503 173.076 268.189 173.076 270.269V275.502C173.076 277.582 174.763 279.269 176.843 279.269H276.354C278.434 279.269 280.121 277.582 280.121 275.502V270.269C280.121 268.189 278.434 266.503 276.354 266.503Z" fill="#4E4E4E"/>
<path d="M229.215 198.748H176.843C174.763 198.748 173.076 200.434 173.076 202.514V210.693C173.076 212.773 174.763 214.459 176.843 214.459H229.215C231.295 214.459 232.982 212.773 232.982 210.693V202.514C232.982 200.434 231.295 198.748 229.215 198.748Z" fill="#4E4E4E"/>
<path d="M203.134 303.819H179.354C175.887 303.819 173.076 306.629 173.076 310.096V333.875C173.076 337.342 175.887 340.152 179.354 340.152H203.134C206.602 340.152 209.412 337.342 209.412 333.875V310.096C209.412 306.629 206.602 303.819 203.134 303.819Z" fill="#4E4E4E"/>
<path d="M291.52 303.819H267.74C264.273 303.819 261.462 306.629 261.462 310.096V333.875C261.462 337.342 264.273 340.152 267.74 340.152H291.52C294.987 340.152 297.798 337.342 297.798 333.875V310.096C297.798 306.629 294.987 303.819 291.52 303.819Z" fill="#4E4E4E"/>
<path d="M382.856 303.819H359.076C355.609 303.819 352.798 306.629 352.798 310.096V333.875C352.798 337.342 355.609 340.152 359.076 340.152H382.856C386.323 340.152 389.134 337.342 389.134 333.875V310.096C389.134 306.629 386.323 303.819 382.856 303.819Z" fill="#4E4E4E"/>
<path d="M278.865 167.323H174.332C173.638 167.323 173.076 167.885 173.076 168.578V171.959C173.076 172.652 173.638 173.214 174.332 173.214H278.865C279.559 173.214 280.121 172.652 280.121 171.959V168.578C280.121 167.885 279.559 167.323 278.865 167.323Z" fill="#4E4E4E"/>
<path d="M247.439 350.955H174.332C173.638 350.955 173.076 351.517 173.076 352.21V358.537C173.076 359.231 173.638 359.793 174.332 359.793H247.439C248.133 359.793 248.695 359.231 248.695 358.537V352.21C248.695 351.517 248.133 350.955 247.439 350.955Z" fill="#4E4E4E"/>
<path d="M335.825 350.955H262.718C262.024 350.955 261.462 351.517 261.462 352.21V358.537C261.462 359.231 262.024 359.793 262.718 359.793H335.825C336.518 359.793 337.08 359.231 337.08 358.537V352.21C337.08 351.517 336.518 350.955 335.825 350.955Z" fill="#4E4E4E"/>
<path d="M427.161 350.955H354.053C353.36 350.955 352.798 351.517 352.798 352.21V358.537C352.798 359.231 353.36 359.793 354.053 359.793H427.161C427.854 359.793 428.416 359.231 428.416 358.537V352.21C428.416 351.517 427.854 350.955 427.161 350.955Z" fill="#4E4E4E"/>
<path d="M335.825 362.739H262.718C262.024 362.739 261.462 363.301 261.462 363.995V367.375C261.462 368.069 262.024 368.631 262.718 368.631H335.825C336.518 368.631 337.08 368.069 337.08 367.375V363.995C337.08 363.301 336.518 362.739 335.825 362.739Z" fill="#4E4E4E"/>
<path d="M247.439 362.739H174.332C173.638 362.739 173.076 363.301 173.076 363.995V367.375C173.076 368.069 173.638 368.631 174.332 368.631H247.439C248.133 368.631 248.695 368.069 248.695 367.375V363.995C248.695 363.301 248.133 362.739 247.439 362.739Z" fill="#4E4E4E"/>
<path d="M329.933 373.54H262.718C262.024 373.54 261.462 374.102 261.462 374.796V378.176C261.462 378.87 262.024 379.432 262.718 379.432H329.933C330.626 379.432 331.188 378.87 331.188 378.176V374.796C331.188 374.102 330.626 373.54 329.933 373.54Z" fill="#4E4E4E"/>
<path d="M427.161 362.739H354.053C353.36 362.739 352.798 363.301 352.798 363.995V367.375C352.798 368.069 353.36 368.631 354.053 368.631H427.161C427.854 368.631 428.416 368.069 428.416 367.375V363.995C428.416 363.301 427.854 362.739 427.161 362.739Z" fill="#4E4E4E"/>
<path d="M241.547 373.54H174.332C173.638 373.54 173.076 374.102 173.076 374.796V378.176C173.076 378.87 173.638 379.432 174.332 379.432H241.547C242.24 379.432 242.802 378.87 242.802 378.176V374.796C242.802 374.102 242.24 373.54 241.547 373.54Z" fill="#4E4E4E"/>
<path d="M421.269 373.54H354.053C353.36 373.54 352.798 374.102 352.798 374.796V378.176C352.798 378.87 353.36 379.432 354.053 379.432H421.269C421.962 379.432 422.524 378.87 422.524 378.176V374.796C422.524 374.102 421.962 373.54 421.269 373.54Z" fill="#4E4E4E"/>
<path d="M267.08 177.145H174.332C173.638 177.145 173.076 177.707 173.076 178.4V181.781C173.076 182.474 173.638 183.036 174.332 183.036H267.08C267.774 183.036 268.336 182.474 268.336 181.781V178.4C268.336 177.707 267.774 177.145 267.08 177.145Z" fill="#4E4E4E"/>
<path d="M278.865 186.964H174.332C173.638 186.964 173.076 187.526 173.076 188.219V191.6C173.076 192.294 173.638 192.856 174.332 192.856H278.865C279.559 192.856 280.121 192.294 280.121 191.6V188.219C280.121 187.526 279.559 186.964 278.865 186.964Z" fill="#4E4E4E"/>
<path d="M216.015 100.548H193.974C193.281 100.548 192.719 101.11 192.719 101.803V106.166C192.719 106.86 193.281 107.422 193.974 107.422H216.015C216.708 107.422 217.27 106.86 217.27 106.166V101.803C217.27 101.11 216.708 100.548 216.015 100.548Z" fill="#4E4E4E"/>
</g>
<path d="M263.841 259.534H28.5174C21.7488 259.534 16.2617 265.021 16.2617 271.789V563.772C16.2617 570.54 21.7488 576.027 28.5174 576.027H263.841C270.61 576.027 276.097 570.54 276.097 563.772V271.789C276.097 265.021 270.61 259.534 263.841 259.534Z" fill="#181818" stroke="#363636"/>
<path d="M15.7295 271.789C15.7295 264.727 21.4556 259.001 28.518 259.001H263.842C270.904 259.001 276.63 264.727 276.63 271.789V279.006H15.7295V271.789Z" fill="#363636"/>
<path d="M43.237 272.338C44.6181 272.338 45.7376 271.219 45.7376 269.838C45.7376 268.457 44.6181 267.337 43.237 267.337C41.8559 267.337 40.7363 268.457 40.7363 269.838C40.7363 271.219 41.8559 272.338 43.237 272.338Z" fill="#181818"/>
<path d="M28.2331 272.338C29.6141 272.338 30.7337 271.219 30.7337 269.838C30.7337 268.457 29.6141 267.337 28.2331 267.337C26.852 267.337 25.7324 268.457 25.7324 269.838C25.7324 271.219 26.852 272.338 28.2331 272.338Z" fill="#181818"/>
<path d="M35.735 272.338C37.1161 272.338 38.2357 271.219 38.2357 269.838C38.2357 268.457 37.1161 267.337 35.735 267.337C34.354 267.337 33.2344 268.457 33.2344 269.838C33.2344 271.219 34.354 272.338 35.735 272.338Z" fill="#181818"/>
<path d="M47.8215 304.011C51.7345 304.011 54.9066 300.839 54.9066 296.926C54.9066 293.013 51.7345 289.842 47.8215 289.842C43.9085 289.842 40.7363 293.013 40.7363 296.926C40.7363 300.839 43.9085 304.011 47.8215 304.011Z" fill="#363636"/>
<path d="M77.1812 290.674H58.4739C57.8853 290.674 57.4082 291.151 57.4082 291.74V295.443C57.4082 296.032 57.8853 296.509 58.4739 296.509H77.1812C77.7698 296.509 78.2469 296.032 78.2469 295.443V291.74C78.2469 291.151 77.7698 290.674 77.1812 290.674Z" fill="#363636"/>
<path d="M77.1812 298.175H58.4739C57.8853 298.175 57.4082 298.652 57.4082 299.241V302.944C57.4082 303.532 57.8853 304.009 58.4739 304.009H77.1812C77.7698 304.009 78.2469 303.532 78.2469 302.944V299.241C78.2469 298.652 77.7698 298.175 77.1812 298.175Z" fill="#363636"/>
<path d="M240.594 312.283H50.898C45.6009 312.283 41.3066 316.577 41.3066 321.874V407.124C41.3066 412.421 45.6009 416.715 50.898 416.715H240.594C245.892 416.715 250.186 412.421 250.186 407.124V321.874C250.186 316.577 245.892 312.283 240.594 312.283Z" fill="#363636"/>
<path d="M145.624 371.418C152.428 371.418 157.945 365.903 157.945 359.098C157.945 352.294 152.428 346.778 145.624 346.778C138.819 346.778 133.303 352.294 133.303 359.098C133.303 365.903 138.819 371.418 145.624 371.418Z" fill="#181818"/>
<path d="M151.415 358.176C152.126 358.586 152.126 359.611 151.415 360.021L143.523 364.577C142.814 364.987 141.925 364.475 141.925 363.654V354.543C141.925 353.722 142.814 353.21 143.523 353.619L151.415 358.176Z" fill="#363636"/>
</g>
</svg>

