<svg width="379" height="398" viewBox="0 0 379 398" fill="none" xmlns="http://www.w3.org/2000/svg">
<g opacity="0.5">
<g clip-path="url(#clip0_939_1836)">
<mask id="mask0_939_1836" style="mask-type:alpha" maskUnits="userSpaceOnUse" x="11" y="0" width="368" height="397">
<path d="M379 0H11V397H379V0Z" fill="#181818"/>
</mask>
<g mask="url(#mask0_939_1836)">
</g>
<mask id="mask1_939_1836" style="mask-type:alpha" maskUnits="userSpaceOnUse" x="-254" y="28" width="633" height="370">
<path d="M379 28H-254V398H379V28Z" fill="#181818"/>
</mask>
<g mask="url(#mask1_939_1836)">
<g opacity="0.55">
<path d="M205.407 77.3472C205.407 69.6484 211.649 63.4065 219.348 63.4065H475.873C483.572 63.4065 489.814 69.6484 489.814 77.3472V85.2144H205.407V77.3472Z" fill="#4E4E4E"/>
<path d="M475.874 63.9873H219.348C211.97 63.9873 205.988 69.9687 205.988 77.3472V395.66C205.988 403.039 211.97 409.02 219.348 409.02H475.874C483.252 409.02 489.233 403.039 489.233 395.66V77.3472C489.233 69.9687 483.252 63.9873 475.874 63.9873Z" stroke="#4E4E4E"/>
<path d="M235.393 77.946C236.898 77.946 238.119 76.7256 238.119 75.2201C238.119 73.7146 236.898 72.4941 235.393 72.4941C233.887 72.4941 232.667 73.7146 232.667 75.2201C232.667 76.7256 233.887 77.946 235.393 77.946Z" fill="#181818"/>
<path d="M219.037 77.946C220.543 77.946 221.763 76.7256 221.763 75.2201C221.763 73.7146 220.543 72.4941 219.037 72.4941C217.532 72.4941 216.312 73.7146 216.312 75.2201C216.312 76.7256 217.532 77.946 219.037 77.946Z" fill="#181818"/>
<path d="M227.215 77.946C228.721 77.946 229.941 76.7256 229.941 75.2201C229.941 73.7146 228.721 72.4941 227.215 72.4941C225.71 72.4941 224.489 73.7146 224.489 75.2201C224.489 76.7256 225.71 77.946 227.215 77.946Z" fill="#181818"/>
<path d="M240.39 112.475C244.656 112.475 248.114 109.017 248.114 104.751C248.114 100.486 244.656 97.0276 240.39 97.0276C236.125 97.0276 232.667 100.486 232.667 104.751C232.667 109.017 236.125 112.475 240.39 112.475Z" fill="#4E4E4E"/>
<path d="M272.396 97.9353H252.004C251.362 97.9353 250.842 98.4554 250.842 99.097V103.134C250.842 103.776 251.362 104.296 252.004 104.296H272.396C273.038 104.296 273.558 103.776 273.558 103.134V99.097C273.558 98.4554 273.038 97.9353 272.396 97.9353Z" fill="#4E4E4E"/>
<path d="M328.224 129.739H236.152C234.227 129.739 232.667 131.299 232.667 133.224V141.7C232.667 143.625 234.227 145.186 236.152 145.186H328.224C330.149 145.186 331.71 143.625 331.71 141.7V133.224C331.71 131.299 330.149 129.739 328.224 129.739Z" fill="#4E4E4E"/>
<path d="M443.432 120.056L381.525 115.122C375.769 114.663 370.731 118.958 370.272 124.714L363.424 210.642C362.965 216.398 367.259 221.436 373.015 221.895L434.922 226.829C440.678 227.287 445.716 222.993 446.175 217.237L453.023 131.309C453.482 125.553 449.188 120.515 443.432 120.056Z" fill="#4E4E4E"/>
<path d="M328.224 147.002H236.152C234.227 147.002 232.667 148.562 232.667 150.487V155.329C232.667 157.254 234.227 158.814 236.152 158.814H328.224C330.149 158.814 331.71 157.254 331.71 155.329V150.487C331.71 148.562 330.149 147.002 328.224 147.002Z" fill="#4E4E4E"/>
<path d="M328.224 259.673H236.152C234.227 259.673 232.667 261.234 232.667 263.159V268.001C232.667 269.925 234.227 271.486 236.152 271.486H328.224C330.149 271.486 331.71 269.925 331.71 268.001V263.159C331.71 261.234 330.149 259.673 328.224 259.673Z" fill="#4E4E4E"/>
<path d="M284.609 196.978H236.152C234.227 196.978 232.667 198.539 232.667 200.463V208.031C232.667 209.956 234.227 211.517 236.152 211.517H284.609C286.534 211.517 288.094 209.956 288.094 208.031V200.463C288.094 198.539 286.534 196.978 284.609 196.978Z" fill="#4E4E4E"/>
<path d="M260.478 294.202H238.476C235.268 294.202 232.667 296.803 232.667 300.011V322.013C232.667 325.221 235.268 327.822 238.476 327.822H260.478C263.686 327.822 266.287 325.221 266.287 322.013V300.011C266.287 296.803 263.686 294.202 260.478 294.202Z" fill="#4E4E4E"/>
<path d="M342.258 294.202H320.255C317.047 294.202 314.446 296.803 314.446 300.011V322.013C314.446 325.221 317.047 327.822 320.255 327.822H342.258C345.466 327.822 348.066 325.221 348.066 322.013V300.011C348.066 296.803 345.466 294.202 342.258 294.202Z" fill="#4E4E4E"/>
<path d="M330.548 167.9H233.829C233.187 167.9 232.667 168.421 232.667 169.062V172.191C232.667 172.832 233.187 173.352 233.829 173.352H330.548C331.189 173.352 331.71 172.832 331.71 172.191V169.062C331.71 168.421 331.189 167.9 330.548 167.9Z" fill="#4E4E4E"/>
<path d="M301.471 337.817H233.829C233.187 337.817 232.667 338.337 232.667 338.978V344.833C232.667 345.474 233.187 345.994 233.829 345.994H301.471C302.113 345.994 302.633 345.474 302.633 344.833V338.978C302.633 338.337 302.113 337.817 301.471 337.817Z" fill="#4E4E4E"/>
<path d="M383.25 337.817H315.608C314.966 337.817 314.446 338.337 314.446 338.978V344.833C314.446 345.474 314.966 345.994 315.608 345.994H383.25C383.892 345.994 384.412 345.474 384.412 344.833V338.978C384.412 338.337 383.892 337.817 383.25 337.817Z" fill="#4E4E4E"/>
<path d="M383.25 348.722H315.608C314.966 348.722 314.446 349.242 314.446 349.883V353.012C314.446 353.653 314.966 354.174 315.608 354.174H383.25C383.892 354.174 384.412 353.653 384.412 353.012V349.883C384.412 349.242 383.892 348.722 383.25 348.722Z" fill="#4E4E4E"/>
<path d="M301.471 348.722H233.829C233.187 348.722 232.667 349.242 232.667 349.883V353.012C232.667 353.653 233.187 354.174 233.829 354.174H301.471C302.113 354.174 302.633 353.653 302.633 353.012V349.883C302.633 349.242 302.113 348.722 301.471 348.722Z" fill="#4E4E4E"/>
<path d="M377.798 358.716H315.608C314.966 358.716 314.446 359.236 314.446 359.878V363.006C314.446 363.648 314.966 364.168 315.608 364.168H377.798C378.44 364.168 378.96 363.648 378.96 363.006V359.878C378.96 359.236 378.44 358.716 377.798 358.716Z" fill="#4E4E4E"/>
<path d="M296.019 358.716H233.829C233.187 358.716 232.667 359.236 232.667 359.878V363.006C232.667 363.648 233.187 364.168 233.829 364.168H296.019C296.661 364.168 297.181 363.648 297.181 363.006V359.878C297.181 359.236 296.661 358.716 296.019 358.716Z" fill="#4E4E4E"/>
<path d="M319.644 176.989H233.829C233.187 176.989 232.667 177.509 232.667 178.15V181.279C232.667 181.92 233.187 182.44 233.829 182.44H319.644C320.286 182.44 320.806 181.92 320.806 181.279V178.15C320.806 177.509 320.286 176.989 319.644 176.989Z" fill="#4E4E4E"/>
<path d="M330.548 186.074H233.829C233.187 186.074 232.667 186.595 232.667 187.236V190.365C232.667 191.006 233.187 191.526 233.829 191.526H330.548C331.189 191.526 331.71 191.006 331.71 190.365V187.236C331.71 186.595 331.189 186.074 330.548 186.074Z" fill="#4E4E4E"/>
<path d="M272.396 106.113H252.004C251.362 106.113 250.842 106.633 250.842 107.275V111.312C250.842 111.953 251.362 112.473 252.004 112.473H272.396C273.038 112.473 273.558 111.953 273.558 111.312V107.275C273.558 106.633 273.038 106.113 272.396 106.113Z" fill="#4E4E4E"/>
</g>
<path d="M131.057 229.533V164.477H205.407" stroke="#363636" stroke-width="2" stroke-dasharray="7 7"/>
<mask id="mask2_939_1836" style="mask-type:alpha" maskUnits="userSpaceOnUse" x="96" y="128" width="75" height="68">
<path d="M170.556 128.463H96.2051V195.069H170.556V128.463Z" fill="#D9D9D9"/>
</mask>
<g mask="url(#mask2_939_1836)">
<path d="M116.343 183.968C111.644 183.968 107.63 182.511 104.299 179.597C100.968 176.683 99.3037 173.121 99.3037 168.912C99.3037 165.305 100.517 162.089 102.943 159.269C105.37 156.447 108.546 154.643 112.47 153.856C113.76 149.601 116.343 146.155 120.215 143.519C124.087 140.882 128.476 139.565 133.381 139.565C139.422 139.565 144.546 141.449 148.755 145.219C152.963 148.989 155.067 153.58 155.067 158.991C158.63 159.361 161.585 160.737 163.934 163.119C166.284 165.501 167.459 168.288 167.459 171.48C167.459 174.949 166.103 177.897 163.393 180.325C160.681 182.754 157.39 183.968 153.518 183.968H116.343Z" fill="#363636"/>
</g>
<mask id="mask3_939_1836" style="mask-type:alpha" maskUnits="userSpaceOnUse" x="119" y="150" width="30" height="30">
<path d="M148.483 150.536H119.439V179.579H148.483V150.536Z" fill="#D9D9D9"/>
</mask>
<g mask="url(#mask3_939_1836)">
<path d="M133.961 175.949C130.915 175.949 128.34 175.48 126.231 174.542C124.124 173.605 123.07 172.46 123.07 171.108V159.007C123.07 157.676 124.134 156.536 126.262 155.588C128.39 154.64 130.956 154.167 133.961 154.167C136.967 154.167 139.533 154.64 141.661 155.588C143.789 156.536 144.853 157.676 144.853 159.007V171.108C144.853 172.46 143.799 173.605 141.692 174.542C139.583 175.48 137.008 175.949 133.961 175.949ZM133.961 161.457C135.756 161.457 137.562 161.201 139.376 160.686C141.192 160.171 142.211 159.622 142.433 159.038C142.211 158.452 141.197 157.898 139.391 157.373C137.587 156.849 135.776 156.586 133.961 156.586C132.126 156.586 130.326 156.844 128.562 157.358C126.796 157.872 125.772 158.432 125.49 159.038C125.772 159.643 126.796 160.197 128.562 160.701C130.326 161.205 132.126 161.457 133.961 161.457ZM133.961 167.478C134.808 167.478 135.625 167.438 136.412 167.357C137.198 167.277 137.95 167.16 138.665 167.009C139.382 166.857 140.057 166.671 140.693 166.449C141.328 166.228 141.908 165.975 142.433 165.693V162.063C141.908 162.345 141.328 162.597 140.693 162.819C140.057 163.041 139.382 163.227 138.665 163.379C137.95 163.53 137.198 163.646 136.412 163.726C135.625 163.808 134.808 163.847 133.961 163.847C133.115 163.847 132.287 163.808 131.481 163.726C130.674 163.646 129.913 163.53 129.196 163.379C128.48 163.227 127.81 163.041 127.185 162.819C126.559 162.597 125.994 162.345 125.49 162.063V165.693C125.994 165.975 126.559 166.228 127.185 166.449C127.81 166.671 128.48 166.857 129.196 167.009C129.913 167.16 130.674 167.277 131.481 167.357C132.287 167.438 133.115 167.478 133.961 167.478ZM133.961 173.529C134.89 173.529 135.832 173.458 136.79 173.316C137.749 173.176 138.63 172.989 139.438 172.758C140.244 172.525 140.92 172.263 141.464 171.971C142.009 171.678 142.332 171.381 142.433 171.078V168.113C141.908 168.395 141.328 168.647 140.693 168.869C140.057 169.091 139.382 169.278 138.665 169.429C137.95 169.58 137.198 169.696 136.412 169.777C135.625 169.858 134.808 169.899 133.961 169.899C133.115 169.899 132.287 169.858 131.481 169.777C130.674 169.696 129.913 169.58 129.196 169.429C128.48 169.278 127.81 169.091 127.185 168.869C126.559 168.647 125.994 168.395 125.49 168.113V171.108C125.591 171.411 125.91 171.703 126.444 171.986C126.978 172.269 127.649 172.525 128.455 172.758C129.262 172.989 130.15 173.176 131.118 173.316C132.085 173.458 133.033 173.529 133.961 173.529Z" fill="#181818"/>
</g>
<path d="M336.466 225.467H79.9409C72.5625 225.467 66.5811 231.449 66.5811 238.827V557.14C66.5811 564.519 72.5625 570.5 79.9409 570.5H336.466C343.845 570.5 349.826 564.519 349.826 557.14V238.827C349.826 231.449 343.845 225.467 336.466 225.467Z" fill="#181818" stroke="#363636"/>
<path d="M66 238.827C66 231.128 72.242 224.886 79.9407 224.886H336.466C344.165 224.886 350.407 231.128 350.407 238.827V246.694H66V238.827Z" fill="#363636"/>
<path d="M95.9857 239.426C97.4912 239.426 98.7117 238.206 98.7117 236.7C98.7117 235.195 97.4912 233.974 95.9857 233.974C94.4802 233.974 93.2598 235.195 93.2598 236.7C93.2598 238.206 94.4802 239.426 95.9857 239.426Z" fill="#181818"/>
<path d="M79.6312 239.426C81.1367 239.426 82.3572 238.206 82.3572 236.7C82.3572 235.195 81.1367 233.974 79.6312 233.974C78.1257 233.974 76.9053 235.195 76.9053 236.7C76.9053 238.206 78.1257 239.426 79.6312 239.426Z" fill="#181818"/>
<path d="M87.808 239.426C89.3135 239.426 90.5339 238.206 90.5339 236.7C90.5339 235.195 89.3135 233.974 87.808 233.974C86.3025 233.974 85.082 235.195 85.082 236.7C85.082 238.206 86.3025 239.426 87.808 239.426Z" fill="#181818"/>
<path d="M100.983 273.955C105.249 273.955 108.707 270.497 108.707 266.231C108.707 261.965 105.249 258.508 100.983 258.508C96.7177 258.508 93.2598 261.965 93.2598 266.231C93.2598 270.497 96.7177 273.955 100.983 273.955Z" fill="#363636"/>
<path d="M132.989 259.415H112.596C111.955 259.415 111.435 259.935 111.435 260.577V264.614C111.435 265.256 111.955 265.776 112.596 265.776H132.989C133.631 265.776 134.151 265.256 134.151 264.614V260.577C134.151 259.935 133.631 259.415 132.989 259.415Z" fill="#363636"/>
<path d="M132.989 267.593H112.596C111.955 267.593 111.435 268.113 111.435 268.754V272.792C111.435 273.433 111.955 273.953 112.596 273.953H132.989C133.631 273.953 134.151 273.433 134.151 272.792V268.754C134.151 268.113 133.631 267.593 132.989 267.593Z" fill="#363636"/>
<path d="M311.125 282.973H104.337C98.5629 282.973 93.8818 287.654 93.8818 293.428V386.366C93.8818 392.141 98.5629 396.822 104.337 396.822H311.125C316.899 396.822 321.58 392.141 321.58 386.366V293.428C321.58 287.654 316.899 282.973 311.125 282.973Z" fill="#363636"/>
<path d="M207.596 347.441C215.014 347.441 221.027 341.427 221.027 334.01C221.027 326.592 215.014 320.579 207.596 320.579C200.178 320.579 194.165 326.592 194.165 334.01C194.165 341.427 200.178 347.441 207.596 347.441Z" fill="#181818"/>
<path d="M213.911 333.005C214.685 333.452 214.685 334.57 213.911 335.017L205.308 339.983C204.534 340.431 203.565 339.872 203.565 338.977V329.043C203.565 328.15 204.534 327.591 205.308 328.037L213.911 333.005Z" fill="#363636"/>
</g>
</g>
</g>
<defs>
<clipPath id="clip0_939_1836">
<rect width="379" height="398" rx="30" fill="white"/>
</clipPath>
</defs>
</svg>

