<svg width="148" height="29" viewBox="0 0 148 29" fill="none" xmlns="http://www.w3.org/2000/svg">
<path d="M5.47375 21.0509C5.47375 22.9633 6.18175 23.9183 7.5959 23.9183C9.10932 23.8941 10.3634 23.0868 11.3562 21.4983C11.7037 20.9529 11.9891 20.2827 12.2125 19.4872C12.2125 16.708 12.4607 14.3258 12.9577 12.3389C10.9467 12.7367 9.19681 13.7047 7.70759 15.2429C6.21836 16.7824 5.47375 18.719 5.47375 21.0509ZM23.0466 18.8171C23.4934 18.8171 23.7168 19.3892 23.7168 20.5297C23.7168 21.1502 23.4561 21.9016 22.9355 22.7828C22.4143 23.6639 21.7373 24.4712 20.9058 25.2028C20.0737 25.935 19.1498 26.5375 18.1322 27.0091C17.1145 27.48 16.1217 27.7152 15.1537 27.7152C13.8376 27.7152 12.9577 26.5617 12.5103 24.2528C11.8644 25.3207 11.0205 26.1956 9.97866 26.8781C8.9362 27.5613 7.54005 27.902 5.79021 27.902C4.03975 27.902 2.63181 27.3565 1.56453 26.2632C0.497254 25.1717 -0.0239743 23.8432 0.000846151 22.2795C0.000846151 18.0613 1.40258 14.7354 4.20791 12.3017C5.39991 11.2847 6.51 10.6145 7.54005 10.2919C8.5701 9.96922 9.65599 9.80727 10.7977 9.80727C11.9395 9.80727 12.8702 10.0065 13.59 10.403C13.9375 9.68378 14.3346 9.32389 14.7814 9.32389C15.6501 9.32389 16.4754 9.70178 17.2572 10.4594C18.0391 11.2171 18.4306 11.9294 18.4306 12.5996C18.0819 13.4193 17.5737 14.3997 16.9036 15.5414C16.705 16.6825 16.6051 18.2841 16.6051 20.3442C16.6051 22.4049 16.8663 23.4337 17.3876 23.4337C18.0329 23.4337 19.5966 22.1443 22.0786 19.5629C22.5254 19.0659 22.848 18.8171 23.0466 18.8171Z" fill="white"/>
<path d="M39.4649 16.2854C39.4649 15.4669 38.9933 15.0574 38.0501 15.0574C37.4048 15.0574 36.685 15.6841 35.8908 16.9376C35.0959 18.191 34.525 19.5375 34.1781 20.9771V21.0509C34.1781 21.8961 34.3078 22.7648 34.5685 23.6577C34.8291 24.5512 34.96 25.1717 34.96 25.5192C34.96 26.3631 33.9045 27.1946 31.7954 28.0137C31.4721 28.1371 31.1867 28.2004 30.9391 28.2004C30.3186 28.2004 29.8898 27.8765 29.654 27.2318C29.4182 26.5871 29.3003 25.7122 29.3003 24.6071C29.3003 23.5026 29.332 22.4607 29.394 21.4803C29.4554 20.4999 29.5181 19.5946 29.5802 18.7619C29.6422 17.9304 29.7043 17.1982 29.7657 16.5652C29.8277 15.9323 29.8594 15.4179 29.8594 15.0202C29.8594 14.1769 29.4741 13.7543 28.7052 13.7543C27.9358 13.7543 27.0417 14.6541 26.0246 16.4536C25.0064 18.2537 24.4982 19.6802 24.4982 20.7345C24.4982 21.7906 24.6285 22.7648 24.8891 23.6577C25.1497 24.5512 25.28 25.1717 25.28 25.5192C25.28 26.3631 24.2245 27.1946 22.1154 28.0137C21.7928 28.1371 21.5067 28.2004 21.2591 28.2004C20.6386 28.2004 20.2105 27.8765 19.9747 27.2318C19.7382 26.5871 19.621 25.5931 19.621 24.2528C19.621 20.7289 19.7569 18.1848 20.0305 16.6211C20.4022 14.3122 21.2461 12.1286 22.5622 10.0679C23.009 9.37353 23.493 9.02604 24.0142 9.02604C24.8333 9.02604 25.5903 9.69619 26.2853 11.0365C26.4838 11.3846 26.6321 11.7066 26.732 12.0045C27.9234 10.5153 29.3251 9.77003 30.9391 9.77003C32.0057 9.77003 32.9619 10.1237 33.8058 10.8317C34.6491 11.5391 35.0717 12.4264 35.0717 13.4931V13.9026C36.5851 12.0169 38.4349 11.0737 40.6184 11.0737C41.9594 11.0737 42.977 11.4212 43.6713 12.1162C44.3663 12.8105 44.7144 13.6675 44.7144 14.6851C44.7144 15.7034 44.64 16.6211 44.491 17.4408C44.3415 18.2586 44.1746 19.0281 43.9884 19.7485C43.8023 20.4683 43.6347 21.1068 43.4858 21.6652C43.3369 22.2243 43.2618 22.6593 43.2618 22.9683C43.2618 23.2798 43.3611 23.4337 43.5603 23.4337C43.932 23.4337 44.3911 23.1985 44.9378 22.7269C45.4832 22.2559 46.0299 21.7409 46.576 21.1818C47.122 20.6234 47.624 20.1084 48.0838 19.6368C48.5423 19.1652 48.8594 18.9288 49.0332 18.9288C49.38 18.9288 49.5544 19.352 49.5544 20.1952C49.5544 21.9333 48.6795 23.6205 46.929 25.2586C45.1798 26.8961 43.3114 27.7152 41.3264 27.7152C39.5387 27.7152 38.6458 26.0901 38.6458 22.8386C38.6458 22.0195 38.7817 20.8896 39.0554 19.45C39.3278 18.0117 39.4649 16.9562 39.4649 16.2854Z" fill="white"/>
<path d="M59.6067 20.1202C60.0286 19.2272 60.2402 18.3579 60.2402 17.5146C60.2402 16.6707 59.9659 16.2488 59.4205 16.2488C59.1971 16.2488 59.011 16.4101 58.8621 16.7328C58.7131 17.0555 58.6387 17.3657 58.6387 17.6636C58.6387 18.6564 58.9613 19.4754 59.6067 20.1202ZM59.9417 24.4395C57.9809 26.7484 55.6286 27.902 52.8865 27.902C50.1433 27.902 48.0894 27.2002 46.7249 25.7978C45.3597 24.3961 44.6896 22.6518 44.7144 20.5675C44.6896 17.6139 45.6204 15.0698 47.5067 12.9346C49.3931 10.8007 51.8633 9.73343 54.9156 9.73343C56.3055 9.73343 57.4218 9.90717 58.2664 10.2547C59.7308 10.8497 60.463 11.4082 60.463 11.9294C60.463 12.3272 59.4385 12.5319 57.3921 12.5443C55.3438 12.5567 53.6311 13.2641 52.253 14.6659C50.8767 16.0682 50.1867 17.8367 50.1867 19.9725C50.1867 21.0888 50.5162 22.0251 51.1739 22.7828C51.8317 23.5404 52.7624 23.9183 53.9662 23.9183C55.17 23.9183 56.169 23.6701 56.9633 23.1731C55.2004 21.9817 54.3193 20.2573 54.3193 17.998C54.2945 16.8072 54.7232 15.722 55.6044 14.7409C56.4855 13.7605 57.6148 13.2641 58.9924 13.2517C60.3693 13.2393 61.3559 13.6178 61.9522 14.3873C62.5479 15.1567 62.8457 16.1433 62.8457 17.3471C62.8457 18.5509 62.5603 19.8229 61.9894 21.1639H62.2128C63.3049 21.1384 64.2475 20.7537 65.0423 20.0085C65.3402 19.7106 65.594 19.45 65.8056 19.2272C66.0159 19.0039 66.2343 18.8922 66.4571 18.8922C66.8046 18.8922 66.9783 19.3023 66.9783 20.1202C66.9783 21.6348 66.5316 22.7704 65.638 23.5268C64.7445 24.2844 63.7579 24.6623 62.6782 24.6623C61.5985 24.6623 60.6864 24.5885 59.9417 24.4395Z" fill="white"/>
<path d="M148 24.1764C148 26.234 146.331 27.902 144.273 27.902C142.217 27.9007 140.549 26.2328 140.549 24.1752C140.549 22.1176 142.218 20.4496 144.274 20.4509C146.332 20.4509 148 22.1188 148 24.1764Z" fill="white"/>
<path d="M89.6732 6.07226C89.9959 6.07226 90.1578 6.49483 90.1578 7.3381C90.1578 8.18138 90.1069 8.97625 90.0089 9.72086C89.7849 11.1604 89.5001 12.5008 89.152 13.7418C88.2591 17.1167 87.8117 19.09 87.8117 19.6608V25.1337C87.8117 26.474 87.3029 27.393 86.2858 27.89C85.813 28.1128 85.3613 28.3238 84.9263 28.5223C84.4919 28.7209 84.0011 28.8208 83.4557 28.8208C82.4139 28.8208 81.8926 27.6232 81.8926 25.2274C81.8926 22.8323 82.4511 19.8097 83.5674 16.1618C84.6849 12.5132 85.8509 9.73327 87.0677 7.82148C87.3147 7.44979 87.6745 7.0657 88.1474 6.66795C88.619 6.27082 89.1278 6.07226 89.6732 6.07226ZM105.869 19.4753C106.29 19.4753 106.502 20.0462 106.502 21.1879C106.502 21.8084 106.241 22.5598 105.72 23.441C105.198 24.3221 104.522 25.1288 103.691 25.8597C102.859 26.5932 101.935 27.1957 100.917 27.6654C99.8992 28.1382 98.9312 28.3734 98.0135 28.3734C97.0951 28.3734 96.3753 28.2003 95.8541 27.8522C95.3329 27.5047 94.9234 27.0331 94.6249 26.438C94.2036 25.5941 93.8555 23.9864 93.5831 21.6154C93.3088 19.2463 93.0364 17.5896 92.7634 16.6458C92.1174 16.5217 91.554 16.2679 91.0694 15.8825C90.586 15.4978 90.3434 15.0262 90.3434 14.4678C90.3434 13.9093 90.5978 13.5054 91.1072 13.2572C91.6148 13.0102 92.1987 12.8848 92.8571 12.8848C93.5136 12.8848 94.1043 13.0468 94.6249 13.3695C95.3199 12.7986 95.8845 12.1222 96.3195 11.3398C96.7532 10.5579 96.9704 9.50368 96.9704 8.17579C96.9704 6.84852 96.5243 5.78683 95.6301 4.99257C94.7366 4.1977 93.4279 3.80119 91.7023 3.80119C89.9773 3.80119 88.655 3.9377 87.7378 4.21073C86.8189 4.48375 86.0302 4.78222 85.3731 5.10426C84.7153 5.42693 84.1321 5.72478 83.6232 5.9978C83.1144 6.27082 82.6366 6.40734 82.1905 6.40734C81.7437 6.40734 81.5203 6.26462 81.5203 5.97918C81.5203 5.69437 81.7555 5.22899 82.2271 4.58303C82.6987 3.9377 83.3943 3.29299 84.3126 2.64642C86.6203 1.03371 89.2271 0.233255 92.1311 0.245667C95.035 0.258076 97.4296 0.810951 99.3166 1.90243C101.525 3.19309 102.63 5.12846 102.63 7.71041C102.654 9.84558 102.096 11.6196 100.954 13.0344C99.8124 14.4492 98.3982 15.4674 96.7098 16.0873C97.0827 16.9058 97.3862 17.7869 97.6226 18.7301C97.8571 19.6739 98.088 20.5432 98.3107 21.3368C98.5347 22.1317 98.7879 22.7888 99.0739 23.31C99.3588 23.8313 99.7069 24.0919 100.116 24.0919C100.526 24.0919 101.023 23.8505 101.606 23.3659C102.189 22.8819 102.766 22.3551 103.337 21.7842C103.907 21.2121 104.423 20.6847 104.882 20.2013C105.341 19.7167 105.669 19.4753 105.869 19.4753Z" fill="white"/>
<path d="M137.925 19.4754C138.347 19.4754 138.558 20.0463 138.558 21.188C138.558 21.8085 138.298 22.56 137.776 23.4411C137.255 24.3222 136.579 25.1289 135.747 25.8598C134.915 26.5933 133.99 27.1952 132.974 27.6655C131.955 28.1384 130.881 28.3735 129.753 28.3735C128.624 28.3735 127.743 28.0074 127.11 27.2752C126.476 26.5436 126.16 25.724 126.16 24.8174C126.16 23.9121 126.309 22.8882 126.607 21.7465C126.905 20.6047 127.228 19.4134 127.575 18.1723C128.518 14.8718 129.002 12.5505 129.027 11.2102C129.027 10.6393 128.952 10.1988 128.803 9.8879C128.654 9.57765 128.369 9.42252 127.947 9.42252C127.202 9.42252 126.408 9.86991 125.565 10.7628C124.72 11.657 123.926 12.7987 123.182 14.188C121.469 17.3657 120.563 20.4682 120.463 23.4963C120.513 23.8444 120.563 24.1913 120.613 24.5388C120.663 24.8869 120.687 25.2586 120.687 25.6551C120.687 26.45 120.297 27.1759 119.515 27.8343C118.733 28.4908 117.858 28.8209 116.89 28.8209C116.319 28.8209 115.897 28.5405 115.623 27.982C115.349 27.4248 115.213 26.7348 115.213 25.9169C115.213 25.0979 115.399 23.9803 115.772 22.5656C116.145 21.1502 116.554 19.6485 117.001 18.06C118.192 13.866 118.801 10.7386 118.825 8.67853C118.825 7.63545 118.696 6.81699 118.435 6.22068C118.174 5.62561 117.671 5.32777 116.927 5.32777C115.587 5.32777 114.257 6.28336 112.942 8.19453C111.626 10.1063 110.448 13.0717 109.405 17.0927C109.132 18.1351 108.921 19.0417 108.772 19.8099L108.735 20.5179C109.206 22.802 109.443 24.2906 109.443 24.9862C109.443 26.4258 108.933 27.3931 107.917 27.8902C107.444 28.1129 106.99 28.3239 106.557 28.5225C106.123 28.721 105.657 28.8209 105.16 28.8209C103.919 28.8209 103.299 27.6351 103.299 25.2648C103.299 22.8944 103.957 18.2598 105.273 11.3585C105.744 8.87709 105.98 7.48715 105.98 7.1893C105.98 5.17823 105.471 4.17362 104.454 4.17362C104.106 4.17362 103.79 4.2729 103.504 4.47146C103.219 4.67003 102.933 4.88038 102.648 5.10439C102.362 5.32777 102.072 5.53874 101.773 5.73731C101.475 5.93587 101.133 6.03515 100.749 6.03515C100.364 6.03515 100.172 5.69946 100.172 5.0293C100.172 3.6648 100.805 2.54788 102.072 1.67917C103.287 0.785011 104.765 0.338863 106.501 0.338863C108.735 0.338863 110.051 1.38132 110.448 3.46624C110.546 4.08675 110.622 4.74449 110.671 5.43884C112.507 1.99004 114.828 0.264402 117.634 0.264402C120.687 0.264402 122.437 1.72943 122.884 4.65762C123.033 5.50151 123.095 6.40746 123.07 7.37545V7.67268C124.682 5.43884 126.593 4.32254 128.803 4.32254C131.931 4.32254 133.494 6.20889 133.494 9.9816C133.494 11.6197 133.24 13.5371 132.731 15.7331C132.222 17.9303 131.85 19.5071 131.615 20.462C131.378 21.417 131.261 22.156 131.261 22.6772C131.261 23.6204 131.589 24.0914 132.248 24.0914C132.904 24.0914 134.475 22.802 136.957 20.2194C137.404 19.7236 137.727 19.4754 137.925 19.4754Z" fill="white"/>
<path d="M84.8994 14.5346C85.5249 14.5346 85.8401 15.1334 85.8401 16.3291C85.8401 17.5255 85.5708 18.8099 85.0291 20.1831C84.4899 21.5563 83.6714 22.8798 82.5738 24.1531C81.4755 25.4283 80.0737 26.5179 78.3673 27.4183C76.6584 28.3211 74.6467 28.7722 72.331 28.7722C70.0128 28.7722 67.9843 27.9991 66.2432 26.449C64.5001 24.899 63.6302 22.6627 63.6302 19.7407C63.6302 16.8206 64.0385 14.1722 64.8576 11.7994C65.676 9.42656 66.7557 7.37701 68.0972 5.65137C69.4382 3.92511 70.9634 2.5817 72.6704 1.62053C74.3774 0.660603 75.9963 0.179085 77.5296 0.179085C80.2127 0.179085 81.5543 1.37667 81.5543 3.76812C81.5543 5.14193 81.3023 6.23899 80.7972 7.06303C80.2903 7.88583 79.7777 8.29785 79.2553 8.29785C78.5572 8.29785 77.9491 8.0242 77.4266 7.47381C76.9029 6.9259 76.3283 6.64108 75.701 6.62185C75.073 6.60261 73.3703 6.55545 71.9221 8.88237C70.91 10.5087 71.0658 10.3437 70.6811 11.442C69.9153 13.6392 69.4661 15.3258 69.4661 18.267C69.5008 19.6793 70.7636 21.8386 71.8786 22.5454C72.6443 23.0151 73.5584 23.4104 74.5965 23.2795C76.8353 22.9984 78.0918 21.9367 79.0071 20.9563C79.8516 20.0509 80.5956 19.1928 81.3979 18.2695C82.1977 17.3486 82.9033 16.4967 83.5145 15.7111C84.1238 14.9268 84.5842 14.5346 84.8994 14.5346Z" fill="white"/>
</svg>
