<svg width="124" height="24" viewBox="0 0 124 24" fill="none" xmlns="http://www.w3.org/2000/svg">
<path d="M4.58611 17.49C4.58611 19.0923 5.17931 19.8924 6.36413 19.8924C7.63213 19.8721 8.68283 19.1957 9.51465 17.8648C9.80578 17.4079 10.0449 16.8464 10.2321 16.1799C10.2321 13.8513 10.44 11.8555 10.8565 10.1908C9.17152 10.524 7.70544 11.3351 6.45771 12.6239C5.20998 13.9137 4.58611 15.5363 4.58611 17.49ZM19.3093 15.6184C19.6836 15.6184 19.8708 16.0977 19.8708 17.0533C19.8708 17.5732 19.6524 18.2028 19.2163 18.941C18.7796 19.6792 18.2124 20.3556 17.5157 20.9686C16.8185 21.582 16.0444 22.0868 15.1918 22.482C14.3392 22.8765 13.5074 23.0736 12.6964 23.0736C11.5937 23.0736 10.8565 22.1071 10.4816 20.1726C9.94043 21.0673 9.23339 21.8004 8.3605 22.3723C7.48709 22.9447 6.31734 23.2301 4.85126 23.2301C3.38466 23.2301 2.20503 22.7731 1.31082 21.857C0.416619 20.9426 -0.0200866 19.8295 0.000708938 18.5194C0.000708938 14.9852 1.17513 12.1986 3.52554 10.1596C4.52425 9.30749 5.45433 8.74601 6.31734 8.47567C7.18035 8.20533 8.09015 8.06964 9.04675 8.06964C10.0033 8.06964 10.7832 8.23652 11.3862 8.56873C11.6774 7.96618 12.0101 7.66465 12.3844 7.66465C13.1123 7.66465 13.8037 7.98126 14.4588 8.61604C15.1138 9.25082 15.4419 9.84765 15.4419 10.4091C15.1497 11.0959 14.7239 11.9173 14.1624 12.8739C13.9961 13.83 13.9124 15.1718 13.9124 16.8978C13.9124 18.6244 14.1312 19.4864 14.568 19.4864C15.1086 19.4864 16.4187 18.406 18.4983 16.2433C18.8726 15.8269 19.143 15.6184 19.3093 15.6184Z" fill="white"/>
<path d="M33.0652 13.4972C33.0652 12.8115 32.6701 12.4684 31.8799 12.4684C31.3392 12.4684 30.7361 12.9935 30.0707 14.0436C29.4047 15.0938 28.9264 16.222 28.6358 17.4281V17.49C28.6358 18.198 28.7444 18.9259 28.9628 19.674C29.1811 20.4226 29.2908 20.9425 29.2908 21.2337C29.2908 21.9407 28.4065 22.6374 26.6394 23.3236C26.3685 23.4271 26.1294 23.4801 25.922 23.4801C25.4021 23.4801 25.0428 23.2087 24.8453 22.6686C24.6477 22.1284 24.5489 21.3954 24.5489 20.4694C24.5489 19.544 24.5754 18.6711 24.6274 17.8497C24.6789 17.0283 24.7314 16.2698 24.7834 15.5721C24.8354 14.8754 24.8874 14.262 24.9388 13.7317C24.9908 13.2014 25.0173 12.7704 25.0173 12.4372C25.0173 11.7306 24.6945 11.3766 24.0504 11.3766C23.4057 11.3766 22.6565 12.1304 21.8044 13.6381C20.9513 15.1463 20.5255 16.3415 20.5255 17.2248C20.5255 18.1097 20.6347 18.9259 20.8531 19.674C21.0714 20.4226 21.1806 20.9425 21.1806 21.2337C21.1806 21.9407 20.2963 22.6374 18.5292 23.3236C18.2588 23.4271 18.0191 23.4801 17.8117 23.4801C17.2918 23.4801 16.9331 23.2087 16.7355 22.6686C16.5375 22.1284 16.4392 21.2955 16.4392 20.1726C16.4392 17.2201 16.5531 15.0886 16.7823 13.7785C17.0937 11.844 17.8008 10.0145 18.9035 8.28796C19.2778 7.7062 19.6833 7.41506 20.12 7.41506C20.8063 7.41506 21.4405 7.97654 22.0228 9.0995C22.1892 9.39116 22.3134 9.66098 22.3971 9.91052C23.3953 8.66279 24.5697 8.03841 25.922 8.03841C26.8156 8.03841 27.6168 8.33475 28.3238 8.92794C29.0304 9.52061 29.3844 10.264 29.3844 11.1577V11.5009C30.6524 9.92092 32.2022 9.13069 34.0317 9.13069C35.1552 9.13069 36.0078 9.42183 36.5895 10.0041C37.1718 10.5859 37.4634 11.3038 37.4634 12.1564C37.4634 13.0096 37.4011 13.7785 37.2763 14.4653C37.151 15.1505 37.0111 15.7951 36.8552 16.3987C36.6992 17.0018 36.5588 17.5368 36.4341 18.0046C36.3093 18.4731 36.2464 18.8375 36.2464 19.0964C36.2464 19.3574 36.3296 19.4863 36.4965 19.4863C36.8079 19.4863 37.1926 19.2893 37.6506 18.8942C38.1076 18.4996 38.5656 18.0681 39.0231 17.5997C39.4806 17.1318 39.9012 16.7003 40.2864 16.3051C40.6706 15.91 40.9363 15.7119 41.0819 15.7119C41.3725 15.7119 41.5186 16.0665 41.5186 16.773C41.5186 18.2292 40.7855 19.6428 39.3189 21.0153C37.8534 22.3873 36.288 23.0736 34.6249 23.0736C33.1271 23.0736 32.379 21.712 32.379 18.9878C32.379 18.3015 32.4928 17.3548 32.7221 16.1487C32.9503 14.9436 33.0652 14.0592 33.0652 13.4972Z" fill="white"/>
<path d="M49.9407 16.7102C50.2943 15.962 50.4715 15.2337 50.4715 14.5272C50.4715 13.8201 50.2418 13.4666 49.7848 13.4666C49.5976 13.4666 49.4417 13.6018 49.3169 13.8721C49.1921 14.1424 49.1297 14.4024 49.1297 14.6519C49.1297 15.4838 49.4001 16.17 49.9407 16.7102ZM50.2215 20.3291C48.5786 22.2636 46.6077 23.2301 44.3104 23.2301C42.0119 23.2301 40.2911 22.6421 39.1479 21.4671C38.0041 20.2927 37.4427 18.8313 37.4634 17.085C37.4427 14.6103 38.2225 12.4788 39.8029 10.6899C41.3834 8.90198 43.4531 8.00777 46.0104 8.00777C47.1749 8.00777 48.1102 8.15334 48.8178 8.44448C50.0447 8.94305 50.6582 9.41095 50.6582 9.84765C50.6582 10.1809 49.7999 10.3525 48.0853 10.3629C46.3691 10.3733 44.9342 10.9659 43.7796 12.1404C42.6264 13.3153 42.0483 14.797 42.0483 16.5864C42.0483 17.5217 42.3244 18.3062 42.8755 18.941C43.4266 19.5758 44.2064 19.8924 45.215 19.8924C46.2235 19.8924 47.0606 19.6844 47.726 19.268C46.249 18.2698 45.5108 16.8251 45.5108 14.9321C45.49 13.9345 45.8492 13.0252 46.5875 12.2033C47.3257 11.3818 48.2719 10.9659 49.4261 10.9555C50.5797 10.9451 51.4063 11.2623 51.9059 11.9069C52.405 12.5516 52.6546 13.3782 52.6546 14.3868C52.6546 15.3954 52.4154 16.4611 51.9371 17.5846H52.1243C53.0393 17.5633 53.829 17.241 54.495 16.6166C54.7445 16.367 54.9571 16.1487 55.1344 15.962C55.3107 15.7749 55.4937 15.6813 55.6803 15.6813C55.9714 15.6813 56.117 16.025 56.117 16.7102C56.117 17.9792 55.7427 18.9306 54.994 19.5643C54.2454 20.1991 53.4188 20.5157 52.5142 20.5157C51.6096 20.5157 50.8453 20.4539 50.2215 20.3291Z" fill="white"/>
<path d="M124 20.1087C124 21.8326 122.602 23.2301 120.878 23.2301C119.155 23.229 117.757 21.8316 117.757 20.1076C117.757 18.3837 119.156 16.9862 120.879 16.9873C122.603 16.9873 124 18.3847 124 20.1087Z" fill="white"/>
<path d="M75.1316 4.94032C75.4019 4.94032 75.5376 5.29436 75.5376 6.00089C75.5376 6.70742 75.495 7.37339 75.4128 7.99726C75.2252 9.2034 74.9865 10.3264 74.6949 11.3661C73.9468 14.1938 73.5719 15.847 73.5719 16.3253V20.9107C73.5719 22.0337 73.1456 22.8036 72.2935 23.2201C71.8974 23.4067 71.5189 23.5835 71.1544 23.7498C70.7905 23.9162 70.3793 23.9999 69.9223 23.9999C69.0494 23.9999 68.6127 22.9965 68.6127 20.9892C68.6127 18.9825 69.0806 16.4501 70.0159 13.3937C70.9522 10.3368 71.9291 8.00766 72.9486 6.40588C73.1555 6.09447 73.457 5.77266 73.8532 5.43941C74.2483 5.10669 74.6746 4.94032 75.1316 4.94032ZM88.7006 16.1699C89.0536 16.1699 89.2314 16.6482 89.2314 17.6048C89.2314 18.1247 89.0131 18.7542 88.5764 19.4925C88.1392 20.2307 87.5725 20.9066 86.8758 21.519C86.1792 22.1335 85.4046 22.6383 84.5525 23.0319C83.6993 23.428 82.8883 23.6251 82.1194 23.6251C81.35 23.6251 80.7469 23.48 80.3102 23.1884C79.8735 22.8972 79.5303 22.5021 79.2803 22.0035C78.9273 21.2965 78.6356 19.9495 78.4074 17.963C78.1776 15.978 77.9494 14.5899 77.7206 13.7992C77.1794 13.6952 76.7074 13.4826 76.3013 13.1597C75.8963 12.8374 75.6931 12.4423 75.6931 11.9744C75.6931 11.5065 75.9062 11.1681 76.333 10.9601C76.7583 10.7532 77.2475 10.6482 77.7991 10.6482C78.3492 10.6482 78.8441 10.7839 79.2803 11.0542C79.8626 10.5759 80.3357 10.0092 80.7001 9.35365C81.0635 8.69859 81.2455 7.8153 81.2455 6.70274C81.2455 5.5907 80.8717 4.70117 80.1225 4.03572C79.3739 3.36974 78.2774 3.03753 76.8316 3.03753C75.3863 3.03753 74.2784 3.15191 73.5101 3.38066C72.7401 3.60941 72.0793 3.85948 71.5288 4.1293C70.9777 4.39964 70.489 4.64919 70.0627 4.87794C69.6364 5.10669 69.2361 5.22106 68.8623 5.22106C68.4879 5.22106 68.3008 5.10149 68.3008 4.86234C68.3008 4.62371 68.4978 4.23379 68.8929 3.69259C69.288 3.15191 69.8708 2.61175 70.6403 2.07002C72.5737 0.718838 74.7578 0.0481834 77.1909 0.0585804C79.6239 0.0689774 81.6302 0.532196 83.2111 1.44668C85.0614 2.52804 85.9873 4.14957 85.9873 6.31282C86.0076 8.10176 85.5397 9.58811 84.5831 10.7735C83.6265 11.9588 82.4417 12.8119 81.0271 13.3313C81.3396 14.017 81.5938 14.7553 81.7919 15.5455C81.9884 16.3363 82.1818 17.0646 82.3684 17.7295C82.5561 18.3955 82.7682 18.9461 83.0079 19.3828C83.2465 19.8195 83.5382 20.0378 83.8813 20.0378C84.2244 20.0378 84.6408 19.8356 85.129 19.4296C85.6177 19.0241 86.1012 18.5827 86.5795 18.1044C87.0573 17.6251 87.4893 17.1831 87.874 16.7782C88.2587 16.3721 88.5338 16.1699 88.7006 16.1699Z" fill="white"/>
<path d="M115.559 16.17C115.912 16.17 116.089 16.6483 116.089 17.6049C116.089 18.1248 115.871 18.7543 115.434 19.4926C114.997 20.2308 114.431 20.9067 113.734 21.5191C113.036 22.1336 112.262 22.6379 111.41 23.032C110.557 23.4281 109.657 23.6252 108.712 23.6252C107.766 23.6252 107.028 23.3184 106.497 22.705C105.967 22.092 105.701 21.4052 105.701 20.6457C105.701 19.8872 105.826 19.0294 106.076 18.0728C106.326 17.1162 106.596 16.118 106.887 15.0782C107.677 12.3129 108.082 10.368 108.104 9.24508C108.104 8.76678 108.041 8.39766 107.916 8.1372C107.791 7.87725 107.553 7.74728 107.199 7.74728C106.575 7.74728 105.909 8.12212 105.203 8.87024C104.495 9.6194 103.83 10.576 103.206 11.74C101.771 14.4024 101.013 17.0018 100.929 19.5388C100.97 19.8305 101.013 20.1211 101.054 20.4123C101.096 20.7039 101.116 21.0153 101.116 21.3475C101.116 22.0135 100.789 22.6218 100.134 23.1734C99.4788 23.7234 98.7458 24 97.9348 24C97.4565 24 97.103 23.765 96.8737 23.2971C96.6439 22.8303 96.53 22.2521 96.53 21.5669C96.53 20.8807 96.6855 19.9444 96.9985 18.759C97.3109 17.5732 97.6535 16.315 98.0278 14.9841C99.026 11.4702 99.536 8.84996 99.5563 7.12394C99.5563 6.25001 99.4477 5.56428 99.2293 5.06466C99.0109 4.56609 98.5893 4.31655 97.966 4.31655C96.843 4.31655 95.7289 5.11717 94.6273 6.71842C93.5246 8.3202 92.5378 10.8047 91.6634 14.1736C91.4351 15.047 91.2584 15.8066 91.1336 16.4502L91.1019 17.0434C91.497 18.9571 91.6951 20.2043 91.6951 20.7871C91.6951 21.9932 91.2683 22.8037 90.4167 23.2202C90.0205 23.4068 89.6405 23.5836 89.2771 23.7499C88.9137 23.9163 88.5238 24 88.1074 24C87.0676 24 86.5477 23.0065 86.5477 21.0205C86.5477 19.0346 87.0993 15.1515 88.202 9.36933C88.596 7.2903 88.7941 6.12575 88.7941 5.87621C88.7941 4.19125 88.3673 3.34956 87.5157 3.34956C87.2241 3.34956 86.9589 3.43274 86.7193 3.5991C86.4806 3.76546 86.241 3.94171 86.0023 4.12939C85.7627 4.31655 85.5194 4.49331 85.2693 4.65967C85.0197 4.82603 84.7333 4.90922 84.4115 4.90922C84.0886 4.90922 83.928 4.62796 83.928 4.06648C83.928 2.92325 84.4583 1.98745 85.5194 1.25961C86.5378 0.51045 87.7757 0.136652 89.2303 0.136652C91.1019 0.136652 92.2046 1.01006 92.5378 2.75688C92.62 3.27677 92.6829 3.82785 92.7245 4.40961C94.2628 1.52007 96.2072 0.0742645 98.5581 0.0742645C101.116 0.0742645 102.582 1.30172 102.957 3.75507C103.082 4.46212 103.134 5.22115 103.112 6.03217V6.2812C104.464 4.40961 106.065 3.47433 107.916 3.47433C110.537 3.47433 111.846 5.05479 111.846 8.2157C111.846 9.5882 111.633 11.1947 111.207 13.0345C110.781 14.8755 110.469 16.1965 110.272 16.9966C110.074 17.7967 109.975 18.4159 109.975 18.8526C109.975 19.6428 110.25 20.0374 110.802 20.0374C111.352 20.0374 112.668 18.9571 114.747 16.7933C115.122 16.3779 115.393 16.17 115.559 16.17Z" fill="white"/>
<path d="M71.1319 12.0304C71.656 12.0304 71.9201 12.532 71.9201 13.5339C71.9201 14.5362 71.6945 15.6124 71.2406 16.7629C70.7888 17.9134 70.1031 19.0223 69.1834 20.0891C68.2632 21.1575 67.0888 22.0704 65.6591 22.8248C64.2273 23.5812 62.5418 23.9592 60.6016 23.9592C58.6593 23.9592 56.9598 23.3114 55.501 22.0127C54.0406 20.714 53.3118 18.8404 53.3118 16.3922C53.3118 13.9456 53.6539 11.7267 54.3401 9.73869C55.0258 7.75064 55.9304 6.03345 57.0544 4.58765C58.1779 3.14132 59.4558 2.01577 60.886 1.21046C62.3162 0.406195 63.6726 0.00276184 64.9572 0.00276184C67.2052 0.00276184 68.3292 1.00615 68.3292 3.00979C68.3292 4.16082 68.1182 5.07998 67.695 5.77039C67.2702 6.45976 66.8408 6.80497 66.4031 6.80497C65.8182 6.80497 65.3087 6.5757 64.8709 6.11456C64.4322 5.6555 63.9507 5.41687 63.4251 5.40075C62.899 5.38464 61.4724 5.34512 60.259 7.2947C59.4111 8.65732 59.5416 8.51904 59.2192 9.43924C58.5777 11.2802 58.2013 12.6932 58.2013 15.1575C58.2304 16.3407 59.2884 18.1499 60.2226 18.7421C60.8642 19.1357 61.63 19.4668 62.4997 19.3571C64.3755 19.1216 65.4283 18.2321 66.1951 17.4107C66.9027 16.6522 67.526 15.9331 68.1982 15.1596C68.8684 14.388 69.4595 13.6742 69.9716 13.0161C70.4821 12.3589 70.8678 12.0304 71.1319 12.0304Z" fill="white"/>
</svg>
