<svg width="194" height="29" viewBox="0 0 194 29" fill="none" xmlns="http://www.w3.org/2000/svg">
<g clip-path="url(#clip0_57_124)">
<path fill-rule="evenodd" clip-rule="evenodd" d="M186.306 21.8756V15.6446H183.412V15.8761C183.361 18.4048 182.938 20.2229 182.414 21.8756H186.306ZM191.45 21.8756H193.362L193.244 28.8006H188.506V25.9083H180.756L180.671 28.8006H175.899V21.8756H177.557C178.387 19.5453 178.792 17.281 178.792 12.3556V11.6616H191.45V21.8756ZM95.3836 10.7856C91.9146 10.7856 90.273 9.34762 89.8667 6.8519L93.7758 6.30664C93.9622 7.24871 94.4358 7.84364 95.3836 7.84364C96.3314 7.84364 96.805 7.24871 96.9911 6.30664L100.9 6.8519C100.494 9.34762 98.8356 10.7856 95.3836 10.7856ZM77.8014 21.9747C79.6629 21.9747 80.8474 20.5517 80.8474 18.8014C80.8474 17.0841 79.5445 15.628 77.7506 15.628C75.8894 15.628 74.7049 17.0513 74.7049 18.8014C74.7049 20.519 75.9908 21.9747 77.8014 21.9747ZM77.8014 11.3475C82.4549 11.3475 85.8225 14.7026 85.8225 18.8014C85.8225 22.8508 82.4379 26.2553 77.7506 26.2553C73.0801 26.2553 69.7125 22.9004 69.7125 18.8014C69.7125 14.7523 73.1142 11.3475 77.8014 11.3475ZM166.033 22.0409C167.675 22.0409 168.994 20.702 168.994 18.7685C168.994 16.8844 167.675 15.5291 166.033 15.5291C164.358 15.5291 163.038 16.8511 163.038 18.8179C163.038 20.702 164.358 22.0409 166.033 22.0409ZM168.893 11.6615H174.004V25.9083H168.893V24.0078C167.895 25.1976 166.659 26.2224 164.477 26.2224C160.99 26.2224 157.995 23.4125 157.995 18.8015C157.995 14.1739 160.99 11.3474 164.443 11.3474C166.659 11.3474 167.946 12.3228 168.893 13.3969V11.6615ZM92.9298 18.8346L97.8035 11.6615H102.525V25.9083H97.5662V21.264C97.5662 20.3716 97.5662 19.5452 97.5833 18.7352L92.7099 25.9083H87.9886V11.6615H92.9469V16.2398C92.9469 16.9504 92.9469 17.9752 92.9298 18.8346ZM143.324 14.4051L143.358 11.6616H155.914V25.9083H150.787V15.6446H147.842V16.0911C147.69 24.7018 145.727 26.0901 142.63 26.0901C142.139 26.0901 141.175 26.0074 140.532 25.9083H134.457L130.429 19.8261V25.9083H125.319V11.6616H130.429V17.1486L134.338 11.6616H140.244L135.032 18.1403L140.379 25.7429L140.616 21.3631C141.175 21.4294 141.31 21.4294 141.445 21.4294C142.359 21.4294 143.307 20.7848 143.324 14.4051ZM115.859 21.4459C117.653 21.4459 118.889 20.6856 119.92 19.2313L123.864 22.0408C121.985 24.5199 119.616 26.2553 115.487 26.2553C110.004 26.2553 105.808 22.2723 105.808 16.6529C105.808 11.4136 109.971 7.10009 115.741 7.10009C119.311 7.10009 121.917 8.62044 123.762 11.1989L119.887 13.9587C118.854 12.5541 117.619 11.8928 115.978 11.8928C113.22 11.8928 111.307 14.0084 111.307 16.6529C111.307 19.5618 113.304 21.4459 115.859 21.4459ZM61.6915 7.41404H65.0591L68.6804 25.9083H63.553L61.8947 16.8841L57.275 26.5199H56.6826L52.0459 16.9671L50.3879 25.9083H45.2943L48.9156 7.41404H52.2658C52.2658 7.41404 55.1766 13.529 55.7522 14.7025C56.3275 15.876 56.9872 17.38 56.9872 17.38C56.9872 17.38 57.8333 15.4465 58.2563 14.6201C58.6797 13.7938 61.6915 7.41404 61.6915 7.41404Z" fill="white"/>
<path fill-rule="evenodd" clip-rule="evenodd" d="M5.89954 27.4147C10.5162 27.4147 14.0067 21.544 17.1359 15.1348C18.6419 12.0274 20.0463 8.77169 21.4507 6.01152C22.9929 2.94987 24.5748 0.78894 26.5104 0.78894C28.1511 0.78894 29.6951 2.08303 31.2318 4.11073C34.4177 8.32061 37.1714 15.45 37.1714 20.1259C37.1714 24.0429 35.1071 27.4147 30.8764 27.4147H5.89954Z" fill="white"/>
<path fill-rule="evenodd" clip-rule="evenodd" d="M17.1358 15.1347C13.9646 8.89051 12.5288 4.30908 9.7239 4.30908C7.98087 4.30908 6.01794 6.09416 4.24111 9.01943C2.33757 12.1236 0.839722 16.5037 0.839722 21.2169C0.839722 24.9387 2.70475 27.4146 5.89947 27.4146C10.515 27.4146 14.0066 21.544 17.1358 15.1347Z" fill="white"/>
</g>
<defs>
<clipPath id="clip0_57_124">
<rect width="193" height="29" fill="white" transform="translate(0.75)"/>
</clipPath>
</defs>
</svg>
