<svg width="96" height="56" viewBox="0 0 96 56" fill="none" xmlns="http://www.w3.org/2000/svg">
<path d="M85.5991 0H10.4009C4.65663 0 0 4.61841 0 10.3155V45.3882C0 51.0853 4.65663 55.7037 10.4009 55.7037H85.5991C91.3434 55.7037 96 51.0853 96 45.3882V10.3155C96 4.61841 91.3434 0 85.5991 0Z" fill="white"/>
<mask id="mask0_207_406" style="mask-type:luminance" maskUnits="userSpaceOnUse" x="14" y="15" width="68" height="26">
<path d="M81.7509 15.2671H14.1453V40.5013H81.7509V15.2671Z" fill="white"/>
</mask>
<g mask="url(#mask0_207_406)">
<path d="M14.1453 40.5013V15.2671H20.0698L34.0998 32.0658H31.3011V15.2671H38.3524V40.5013H32.4279L18.3979 23.7025H21.1966V40.5013H14.1453ZM39.0309 25.0363H50.8437V30.3716H39.0309V25.0363ZM39.5397 34.9858H52.8427V40.5013H32.4156V15.2671H52.3702V20.7826H39.5397V34.9858ZM54.6641 40.5013L65.7863 25.1805L65.75 30.2634L55.0639 15.2671H63.1693L70.0026 25.0363L66.5496 25.0724L73.2739 15.2671H81.0522L70.3661 29.975V24.9282L81.6337 40.5013H73.3466L66.4042 30.2274H69.7118L62.8785 40.5013H54.6641Z" fill="#1F1F1F"/>
</g>
</svg>
