<svg width="81" height="47" viewBox="0 0 81 47" fill="none" xmlns="http://www.w3.org/2000/svg">
<g clip-path="url(#clip0_86_188)">
<path d="M72.2243 0H8.77573C3.92903 0 0 3.89678 0 8.7037V38.2963C0 43.1032 3.92903 47 8.77573 47H72.2243C77.071 47 81 43.1032 81 38.2963V8.7037C81 3.89678 77.071 0 72.2243 0Z" fill="white"/>
<mask id="mask0_86_188" style="mask-type:luminance" maskUnits="userSpaceOnUse" x="11" y="12" width="58" height="23">
<path d="M68.9773 12.8816H11.9351V34.1729H68.9773V12.8816Z" fill="white"/>
</mask>
<g mask="url(#mask0_86_188)">
<path d="M11.9351 34.1729V12.8816H16.9339L28.7717 27.0555H26.4103V12.8816H32.3599V34.1729H27.361L15.5232 19.999H17.8847V34.1729H11.9351ZM32.9323 21.1243H42.8994V25.626H32.9323V21.1243ZM33.3616 29.5192H44.586V34.1729H27.3507V12.8816H44.1874V17.5353H33.3616V29.5192ZM46.1229 34.1729L55.5072 21.246L55.4766 25.5347L46.4602 12.8816H53.2991L59.0647 21.1243L56.1512 21.1548L61.8248 12.8816H68.3878L59.3714 25.2914V21.0331L68.8784 34.1729H61.8862L56.0285 25.5043H58.8193L53.0537 34.1729H46.1229Z" fill="#1F1F1F"/>
</g>
</g>
<defs>
<clipPath id="clip0_86_188">
<rect width="81" height="47" fill="white"/>
</clipPath>
</defs>
</svg>
