<svg width="58" height="23" viewBox="0 0 58 23" fill="none" xmlns="http://www.w3.org/2000/svg">
<path d="M0.934998 22.1729V0.881592H5.93383L17.7717 15.0555H15.4102V0.881592H21.3598V22.1729H16.361L4.52313 7.99896H6.88459V22.1729H0.934998ZM21.9323 9.12435H31.8993V13.626H21.9323V9.12435ZM22.3616 17.5192H33.586V22.1729H16.3506V0.881592H33.1873V5.53529H22.3616V17.5192ZM35.1228 22.1729L44.5071 9.24603L44.4765 13.5347L35.4601 0.881592H42.2991L48.0646 9.12435L45.1512 9.15481L50.8248 0.881592H57.3877L48.3713 13.2914V9.03313L57.8784 22.1729H50.8861L45.0285 13.5043H47.8193L42.0537 22.1729H35.1228Z" fill="#1F1F1F"/>
</svg>
