<svg width="179" height="47" viewBox="0 0 179 47" fill="none" xmlns="http://www.w3.org/2000/svg">
<g filter="url(#filter0_b_98_780)">
<rect width="179" height="47" rx="8" fill="#525252" fill-opacity="0.23"/>
</g>
<path d="M72.2243 0H8.77573C3.92903 0 0 3.89678 0 8.7037V38.2963C0 43.1032 3.92903 47 8.77573 47H72.2243C77.071 47 81 43.1032 81 38.2963V8.7037C81 3.89678 77.071 0 72.2243 0Z" fill="white"/>
<mask id="mask0_98_780" style="mask-type:luminance" maskUnits="userSpaceOnUse" x="11" y="12" width="58" height="23">
<path d="M68.9772 12.8816H11.935V34.1729H68.9772V12.8816Z" fill="white"/>
</mask>
<g mask="url(#mask0_98_780)">
<path d="M11.935 34.1729V12.8816H16.9338L28.7717 27.0555H26.4102V12.8816H32.3598V34.1729H27.361L15.5231 19.999H17.8846V34.1729H11.935ZM32.9323 21.1243H42.8993V25.626H32.9323V21.1243ZM33.3616 29.5192H44.586V34.1729H27.3506V12.8816H44.1873V17.5353H33.3616V29.5192ZM46.1228 34.1729L55.5071 21.246L55.4765 25.5347L46.4601 12.8816H53.2991L59.0646 21.1243L56.1512 21.1548L61.8248 12.8816H68.3877L59.3713 25.2914V21.0331L68.8784 34.1729H61.8861L56.0285 25.5043H58.8193L53.0537 34.1729H46.1228Z" fill="#1F1F1F"/>
</g>
<path d="M103.34 31.3C102.407 31.3 101.53 31.1367 100.71 30.81C99.8967 30.4767 99.18 29.99 98.56 29.35C97.9467 28.71 97.4667 27.9267 97.12 27C96.7733 26.0667 96.6 25 96.6 23.8C96.6 22.2267 96.8933 20.8833 97.48 19.77C98.0667 18.65 98.87 17.7933 99.89 17.2C100.91 16.6 102.06 16.3 103.34 16.3C105.113 16.3 106.517 16.7133 107.55 17.54C108.59 18.36 109.293 19.5133 109.66 21L107.2 21.39C106.927 20.5367 106.48 19.8567 105.86 19.35C105.24 18.8367 104.45 18.58 103.49 18.58C102.523 18.5667 101.72 18.7767 101.08 19.21C100.44 19.6433 99.9567 20.2533 99.63 21.04C99.31 21.8267 99.15 22.7467 99.15 23.8C99.15 24.8533 99.31 25.77 99.63 26.55C99.95 27.3233 100.43 27.9267 101.07 28.36C101.717 28.7933 102.523 29.0167 103.49 29.03C104.217 29.0367 104.853 28.9067 105.4 28.64C105.947 28.3667 106.393 27.9567 106.74 27.41C107.087 26.8567 107.32 26.1667 107.44 25.34H104.9V23.45H110C110.013 23.5567 110.023 23.7133 110.03 23.92C110.037 24.1267 110.04 24.25 110.04 24.29C110.04 25.65 109.77 26.86 109.23 27.92C108.697 28.9733 107.93 29.8 106.93 30.4C105.93 31 104.733 31.3 103.34 31.3ZM112.048 31V20.2H114.178V22.83L113.918 22.49C114.052 22.13 114.228 21.8033 114.448 21.51C114.675 21.21 114.945 20.9633 115.258 20.77C115.525 20.59 115.818 20.45 116.138 20.35C116.465 20.2433 116.798 20.18 117.138 20.16C117.478 20.1333 117.808 20.1467 118.128 20.2V22.45C117.808 22.3567 117.438 22.3267 117.018 22.36C116.605 22.3933 116.232 22.51 115.898 22.71C115.565 22.89 115.292 23.12 115.078 23.4C114.872 23.68 114.718 24 114.618 24.36C114.518 24.7133 114.468 25.0967 114.468 25.51V31H112.048ZM124.611 31.3C123.531 31.3 122.588 31.0567 121.781 30.57C120.975 30.0833 120.348 29.4133 119.901 28.56C119.461 27.7 119.241 26.7133 119.241 25.6C119.241 24.4667 119.468 23.4733 119.921 22.62C120.375 21.7667 121.005 21.1 121.811 20.62C122.618 20.14 123.551 19.9 124.611 19.9C125.698 19.9 126.645 20.1433 127.451 20.63C128.258 21.1167 128.885 21.79 129.331 22.65C129.778 23.5033 130.001 24.4867 130.001 25.6C130.001 26.72 129.775 27.71 129.321 28.57C128.875 29.4233 128.248 30.0933 127.441 30.58C126.635 31.06 125.691 31.3 124.611 31.3ZM124.611 29.04C125.571 29.04 126.285 28.72 126.751 28.08C127.218 27.44 127.451 26.6133 127.451 25.6C127.451 24.5533 127.215 23.72 126.741 23.1C126.268 22.4733 125.558 22.16 124.611 22.16C123.965 22.16 123.431 22.3067 123.011 22.6C122.598 22.8867 122.291 23.29 122.091 23.81C121.891 24.3233 121.791 24.92 121.791 25.6C121.791 26.6467 122.028 27.4833 122.501 28.11C122.981 28.73 123.685 29.04 124.611 29.04ZM136.255 31.31C135.455 31.31 134.795 31.1767 134.275 30.91C133.755 30.6433 133.341 30.3033 133.035 29.89C132.728 29.4767 132.501 29.0367 132.355 28.57C132.208 28.1033 132.111 27.6633 132.065 27.25C132.025 26.83 132.005 26.49 132.005 26.23V20.2H134.445V25.4C134.445 25.7333 134.468 26.11 134.515 26.53C134.561 26.9433 134.668 27.3433 134.835 27.73C135.008 28.11 135.261 28.4233 135.595 28.67C135.935 28.9167 136.391 29.04 136.965 29.04C137.271 29.04 137.575 28.99 137.875 28.89C138.175 28.79 138.445 28.62 138.685 28.38C138.931 28.1333 139.128 27.7967 139.275 27.37C139.421 26.9433 139.495 26.4033 139.495 25.75L140.925 26.36C140.925 27.28 140.745 28.1133 140.385 28.86C140.031 29.6067 139.508 30.2033 138.815 30.65C138.121 31.09 137.268 31.31 136.255 31.31ZM139.785 31V27.65H139.495V20.2H141.915V31H139.785ZM149.914 31.3C148.861 31.3 147.978 31.05 147.264 30.55C146.551 30.05 146.014 29.37 145.654 28.51C145.294 27.6433 145.114 26.6733 145.114 25.6C145.114 24.5133 145.294 23.54 145.654 22.68C146.014 21.82 146.541 21.1433 147.234 20.65C147.934 20.15 148.798 19.9 149.824 19.9C150.844 19.9 151.728 20.15 152.474 20.65C153.228 21.1433 153.811 21.82 154.224 22.68C154.638 23.5333 154.844 24.5067 154.844 25.6C154.844 26.68 154.641 27.65 154.234 28.51C153.828 29.37 153.254 30.05 152.514 30.55C151.774 31.05 150.908 31.3 149.914 31.3ZM144.704 35.8V20.2H146.834V27.78H147.134V35.8H144.704ZM149.544 29.14C150.171 29.14 150.688 28.9833 151.094 28.67C151.501 28.3567 151.801 27.9333 151.994 27.4C152.194 26.86 152.294 26.26 152.294 25.6C152.294 24.9467 152.194 24.3533 151.994 23.82C151.794 23.28 151.484 22.8533 151.064 22.54C150.644 22.22 150.111 22.06 149.464 22.06C148.851 22.06 148.351 22.21 147.964 22.51C147.578 22.8033 147.291 23.2167 147.104 23.75C146.924 24.2767 146.834 24.8933 146.834 25.6C146.834 26.3 146.924 26.9167 147.104 27.45C147.291 27.9833 147.581 28.4 147.974 28.7C148.374 28.9933 148.898 29.14 149.544 29.14ZM158.738 23.73L157.008 22.48L158.518 20.71L156.248 20.1L156.908 18.07L159.078 18.96L158.928 16.6H161.068L160.918 18.96L163.078 18.07L163.738 20.1L161.478 20.71L162.978 22.48L161.248 23.73L159.998 21.77L158.738 23.73Z" fill="white"/>
<defs>
<filter id="filter0_b_98_780" x="-50" y="-50" width="279" height="147" filterUnits="userSpaceOnUse" color-interpolation-filters="sRGB">
<feFlood flood-opacity="0" result="BackgroundImageFix"/>
<feGaussianBlur in="BackgroundImageFix" stdDeviation="25"/>
<feComposite in2="SourceAlpha" operator="in" result="effect1_backgroundBlur_98_780"/>
<feBlend mode="normal" in="SourceGraphic" in2="effect1_backgroundBlur_98_780" result="shape"/>
</filter>
</defs>
</svg>
