<svg width="69" height="19" viewBox="0 0 69 19" fill="none" xmlns="http://www.w3.org/2000/svg">
<g clip-path="url(#clip0_68_82)">
<path d="M0 19V0H4.42429L14.9014 12.6486H12.8114V0H18.0771V19H13.6529L3.17571 6.35143H5.26571V19H0ZM18.5838 7.35572H44V11L18.5838 11.3729V7.35572ZM18.9638 14.8471H44V19L13.6438 19V0H44V4.15286H18.9638V14.8471Z" fill="white"/>
</g>
<g clip-path="url(#clip1_68_82)">
<path d="M17 19V0H21.4243L31.9014 12.6486H29.8114V0H35.0771V19H30.6529L20.1757 6.35143H22.2657V19H17ZM35.5838 7.35571H44.4052V11.3729H35.5838V7.35571ZM35.9638 14.8471H45.898V19H30.6438V0H45.5452V4.15286H35.9638V14.8471ZM47.2582 19L55.5639 7.46429L55.5367 11.2914L47.5567 0H53.6096L58.7125 7.35571L56.1339 7.38286L61.1553 0H66.9639L58.9839 11.0743V7.27429L67.3982 19H61.2096L56.0253 11.2643H58.4953L53.3925 19H47.2582Z" fill="white"/>
</g>
<defs>
<clipPath id="clip0_68_82">
<rect width="44" height="19" fill="white"/>
</clipPath>
<clipPath id="clip1_68_82">
<rect width="23" height="19" fill="white" transform="translate(46)"/>
</clipPath>
</defs>
</svg>
