<svg width="101" height="23" viewBox="0 0 101 23" fill="none" xmlns="http://www.w3.org/2000/svg">
<g clip-path="url(#clip0_57_132)">
<mask id="mask0_57_132" style="mask-type:luminance" maskUnits="userSpaceOnUse" x="0" y="0" width="101" height="23">
<path d="M100.25 0H0.25V22.3347H100.25V0Z" fill="white"/>
</mask>
<g mask="url(#mask0_57_132)">
<path d="M10.2967 22.3347C4.98965 22.3347 1.61849 20.1984 0.25 15.958H4.68926C5.65721 17.6735 7.52637 18.5475 10.2967 18.5475C11.6986 18.5475 12.8334 18.2886 13.6679 17.803C14.5357 17.2851 14.9696 16.6054 14.9696 15.7638C14.9696 14.9869 14.6693 14.4043 14.1018 13.9835C13.501 13.5627 12.5664 13.3037 11.2647 13.1742L7.45962 12.8182C5.18992 12.624 3.5544 11.9766 2.48632 10.9084C1.41822 9.80785 0.884179 8.41598 0.884179 6.73278C0.884179 4.72589 1.68524 3.10744 3.28738 1.84504C4.88952 0.615014 7.0257 0 9.69593 0C12.2661 0 14.4022 0.615014 16.0711 1.84504C17.74 3.07507 18.8748 4.59641 19.4756 6.37672H15.0364C14.6693 5.59986 13.9683 4.98485 12.9669 4.49931C11.9656 4.01377 10.8641 3.78719 9.62917 3.78719C8.22731 3.78719 7.15921 4.04614 6.39152 4.59641C5.62383 5.14669 5.25668 5.79408 5.25668 6.60331C5.25668 7.99518 6.32477 8.83678 8.42757 9.06336L12.4997 9.45179C14.6359 9.67838 16.3048 10.3258 17.5064 11.4263C18.708 12.5268 19.3421 13.9188 19.3421 15.6019C19.3421 17.4794 18.5411 19.0654 16.9723 20.3925C15.3702 21.6873 13.1338 22.3347 10.2967 22.3347Z" fill="white"/>
<path d="M26.5183 0V22.3347H22.1458V0H26.5183Z" fill="white"/>
<path d="M47.8132 6.60331C47.8132 8.51308 47.1457 10.0992 45.844 11.3616C44.5422 12.624 42.6396 13.239 40.1363 13.239H33.5609V22.3347H29.1884V0H40.1363C42.6396 0 44.5756 0.615014 45.844 1.87741C47.1457 3.1398 47.8132 4.69353 47.8132 6.60331ZM33.5609 3.78719V9.45179H39.8359C40.9374 9.45179 41.8386 9.19284 42.4728 8.67493C43.107 8.15702 43.4407 7.47727 43.4407 6.60331C43.4407 5.72934 43.1404 5.04959 42.4728 4.53168C41.8386 4.01377 40.9708 3.75482 39.8359 3.75482H33.5609V3.78719Z" fill="white"/>
<path d="M50.4838 12.9153V0H54.8563V12.8829C54.8563 14.7279 55.3236 16.1199 56.2915 17.0909C57.2261 18.062 58.5612 18.5475 60.1633 18.5475C60.1967 18.5475 60.6307 18.5475 60.6641 18.5475C62.433 18.5475 63.6013 18.062 64.5359 17.0909C65.4705 16.1199 65.9377 14.7279 65.9377 12.8829V0H70.3103V12.9153C70.3103 15.8932 69.4424 18.1914 67.6733 19.8746C65.9377 21.5255 63.668 22.3347 60.6641 22.3347C60.6307 22.3347 60.1967 22.3347 60.1633 22.3347C57.2261 22.3347 54.8896 21.4931 53.1207 19.8746C51.3516 18.2238 50.4838 15.8932 50.4838 12.9153Z" fill="white"/>
<path d="M88.8349 0H93.2073L93.0738 22.3347H88.3343L77.3195 6.40909V22.3347H72.947V0H77.6867L88.7014 15.9256L88.8349 0Z" fill="white"/>
<path d="M100.25 0V22.3347H95.8776V0H100.25Z" fill="white"/>
</g>
</g>
<defs>
<clipPath id="clip0_57_132">
<rect width="100" height="23" fill="white" transform="translate(0.25)"/>
</clipPath>
</defs>
</svg>
