<svg width="43" height="32" viewBox="0 0 43 32" fill="none" xmlns="http://www.w3.org/2000/svg">
<path fill-rule="evenodd" clip-rule="evenodd" d="M5.94263 31.2718C11.3649 31.2718 15.4645 24.3768 19.1397 16.8491C20.9085 13.1996 22.5579 9.3757 24.2074 6.1339C26.0187 2.538 27.8767 0 30.15 0C32.077 0 33.8904 1.5199 35.6952 3.90143C39.437 8.84591 42.6713 17.2194 42.6713 22.7112C42.6713 27.3117 40.2467 31.2718 35.2778 31.2718H5.94263Z" fill="#00EAFF"/>
<path fill-rule="evenodd" clip-rule="evenodd" d="M19.1397 16.849C15.4151 9.51523 13.7288 4.13437 10.4344 4.13437C8.38724 4.13437 6.0818 6.23094 3.99491 9.66665C1.75921 13.3125 0 18.4569 0 23.9926C0 28.3638 2.19047 31.2717 5.94265 31.2717C11.3636 31.2717 15.4645 24.3767 19.1397 16.849Z" fill="#0A8A96"/>
</svg>
