<svg width="129" height="19" viewBox="0 0 129 19" fill="none" xmlns="http://www.w3.org/2000/svg">
<g clip-path="url(#clip0_363_789)">
<path fill-rule="evenodd" clip-rule="evenodd" d="M124.024 14.3322V10.2498H122.09V10.4015C122.056 12.0582 121.774 13.2494 121.423 14.3322H124.024ZM127.463 14.3322H128.741L128.662 18.8693H125.495V16.9743H120.315L120.258 18.8693H117.068V14.3322H118.177C118.731 12.8054 119.002 11.3219 119.002 8.09494V7.64025H127.463V14.3322ZM63.2525 7.0663C60.9338 7.0663 59.8366 6.1242 59.565 4.48907L62.1778 4.13184C62.3024 4.74905 62.619 5.13884 63.2525 5.13884C63.886 5.13884 64.2025 4.74905 64.3269 4.13184L66.9397 4.48907C66.6684 6.1242 65.5597 7.0663 63.2525 7.0663ZM51.5007 14.3971C52.7449 14.3971 53.5366 13.4648 53.5366 12.3181C53.5366 11.1929 52.6657 10.239 51.4667 10.239C50.2227 10.239 49.431 11.1715 49.431 12.3181C49.431 13.4434 50.2904 14.3971 51.5007 14.3971ZM51.5007 7.43449C54.611 7.43449 56.8619 9.63266 56.8619 12.3181C56.8619 14.9711 54.5996 17.2016 51.4667 17.2016C48.3449 17.2016 46.0941 15.0036 46.0941 12.3181C46.0941 9.6652 48.3677 7.43449 51.5007 7.43449ZM110.474 14.4405C111.571 14.4405 112.454 13.5633 112.454 12.2965C112.454 11.0621 111.571 10.1742 110.474 10.1742C109.355 10.1742 108.472 11.0403 108.472 12.3289C108.472 13.5633 109.355 14.4405 110.474 14.4405ZM112.386 7.6402H115.802V16.9743H112.386V15.7291C111.718 16.5087 110.893 17.1801 109.434 17.1801C107.104 17.1801 105.102 15.3391 105.102 12.3181C105.102 9.28623 107.104 7.43439 109.411 7.43439C110.893 7.43439 111.752 8.07343 112.386 8.77719V7.6402ZM61.6124 12.3398L64.8699 7.6402H68.0256V16.9743H64.7113V13.9315C64.7113 13.3468 64.7113 12.8054 64.7227 12.2747L61.4654 16.9743H58.3097V7.6402H61.6238V10.6397C61.6238 11.1053 61.6238 11.7767 61.6124 12.3398ZM95.2954 9.43771L95.318 7.64023H103.711V16.9743H100.283V10.2498H98.3154V10.5423C98.2136 16.1838 96.9016 17.0934 94.8317 17.0934C94.5037 17.0934 93.8588 17.0392 93.4291 16.9743H89.3687L86.6769 12.9894V16.9743H83.261V7.64023H86.6769V11.2352L89.2895 7.64023H93.2367L89.7532 11.8849L93.3273 16.866L93.4857 13.9964C93.8588 14.0398 93.9494 14.0398 94.0398 14.0398C94.6507 14.0398 95.284 13.6175 95.2954 9.43771ZM76.9383 14.0507C78.1374 14.0507 78.9631 13.5525 79.6528 12.5997L82.2884 14.4404C81.0327 16.0647 79.4492 17.2017 76.6894 17.2017C73.0247 17.2017 70.2199 14.5921 70.2199 10.9104C70.2199 7.47779 73.0023 4.65168 76.8592 4.65168C79.2456 4.65168 80.9874 5.64777 82.2204 7.33708L79.6302 9.14528C78.9403 8.225 78.1146 7.79176 77.0173 7.79176C75.174 7.79176 73.8958 9.17782 73.8958 10.9104C73.8958 12.8162 75.2304 14.0507 76.9383 14.0507ZM40.7329 4.85737H42.9838L45.4042 16.9743H41.9771L40.8687 11.0619L37.7809 17.375H37.385L34.2858 11.1163L33.1776 16.9743H29.7731L32.1935 4.85737H34.4328C34.4328 4.85737 36.3783 8.86374 36.7631 9.63258C37.1476 10.4014 37.5886 11.3868 37.5886 11.3868C37.5886 11.3868 38.1541 10.12 38.4368 9.57859C38.7198 9.03718 40.7329 4.85737 40.7329 4.85737Z" fill="#7E7E7E"/>
<path fill-rule="evenodd" clip-rule="evenodd" d="M3.44189 17.9613C6.52768 17.9613 8.86068 14.115 10.9522 9.91582C11.9588 7.88 12.8975 5.74692 13.8362 3.93854C14.867 1.93263 15.9243 0.516846 17.2181 0.516846C18.3147 0.516846 19.3467 1.3647 20.3738 2.69319C22.5032 5.45139 24.3438 10.1224 24.3438 13.1859C24.3438 15.7522 22.964 17.9613 20.1362 17.9613H3.44189Z" fill="#7E7E7E"/>
<path fill-rule="evenodd" clip-rule="evenodd" d="M10.9521 9.91576C8.83253 5.82474 7.87284 2.82312 5.99806 2.82312C4.83303 2.82312 3.52103 3.99265 2.3334 5.90921C1.06109 7.94296 0.0599365 10.8127 0.0599365 13.9007C0.0599365 16.3391 1.30651 17.9612 3.44184 17.9612C6.52683 17.9612 8.86062 14.115 10.9521 9.91576Z" fill="#D3D3D3"/>
</g>
<defs>
<clipPath id="clip0_363_789">
<rect width="129" height="19" fill="white"/>
</clipPath>
</defs>
</svg>
