<svg width="30" height="34" viewBox="0 0 30 34" fill="none" xmlns="http://www.w3.org/2000/svg">
<path d="M29.9885 21.0704C29.9885 23.0082 29.6326 24.79 28.9323 26.4048C28.2664 27.9862 27.279 29.3449 25.9931 30.5031C24.6958 31.6168 23.1228 32.4743 21.2744 33.0868C19.4259 33.6993 17.3249 34 14.9943 34C12.6636 34 10.5741 33.6993 8.71412 33.0868C6.86567 32.4743 5.29277 31.6168 3.99541 30.5031C2.69805 29.356 1.6992 27.9862 0.998852 26.4048C0.332951 24.79 0 23.0082 0 21.0704V0.478873C0.401837 0.412054 1.05626 0.311824 1.9403 0.211595C2.82434 0.0668195 3.67394 0 4.48909 0C5.30425 0 6.08496 0.0668195 6.71642 0.211595C7.38232 0.322961 7.93341 0.534556 8.38117 0.857517C8.82893 1.18048 9.16188 1.62594 9.38002 2.20504C9.59816 2.78415 9.71297 3.5303 9.71297 4.46577V20.9034C9.71297 22.6295 10.1952 23.9771 11.1596 24.946C12.1584 25.9148 13.4328 26.4048 14.9943 26.4048C16.5557 26.4048 17.8645 25.9148 18.8289 24.946C19.7933 23.9771 20.2755 22.6295 20.2755 20.9034V0.478873C20.6774 0.412054 21.3318 0.311824 22.2158 0.211595C23.0999 0.0668195 23.961 0 24.7761 0C25.5913 0 26.372 0.0668195 27.0034 0.211595C27.6693 0.322961 28.2204 0.534556 28.6682 0.857517C29.116 1.18048 29.4489 1.62594 29.667 2.20504C29.8852 2.78415 30 3.5303 30 4.46577V21.0593L29.9885 21.0704Z" fill="#00EAFF"/>
</svg>
