<svg width="85" height="25" viewBox="0 0 85 25" fill="none" xmlns="http://www.w3.org/2000/svg">
<g clip-path="url(#clip0_57_143)">
<path d="M25.35 5.93526C25.1604 5.64912 24.9874 5.24853 24.8308 4.74984C24.6742 4.25115 24.5918 3.71975 24.5918 3.16384C24.5918 2.13375 24.8143 1.39798 25.2676 0.948336C25.7456 0.498695 26.3554 0.277963 27.1054 0.277963H44.4861C44.6757 0.564098 44.8487 0.964686 45.0053 1.46338C45.1619 1.96207 45.2443 2.49346 45.2443 3.04938C45.2443 4.07947 45.0053 4.81524 44.5273 5.26488C44.0741 5.71452 43.4807 5.93526 42.7307 5.93526H38.3052V24.207C38.0168 24.2888 37.547 24.3623 36.9124 24.4441C36.3026 24.5258 35.6927 24.5667 35.0746 24.5667C34.4565 24.5667 33.9209 24.5177 33.4429 24.4114C32.9896 24.3296 32.6023 24.1743 32.2891 23.9372C31.9677 23.7001 31.7287 23.3731 31.5721 22.948C31.4155 22.5229 31.3331 21.9752 31.3331 21.2884V5.93526H25.35ZM55.9744 25C54.4085 25 52.9416 24.7874 51.59 24.3705C50.2632 23.9209 49.093 23.2668 48.0793 22.3921C47.0986 21.5255 46.3157 20.43 45.7305 19.1056C45.1701 17.7894 44.8899 16.2443 44.8899 14.4784C44.8899 12.7126 45.1701 11.2492 45.7305 10.0065C46.3157 8.73938 47.0739 7.70929 48.0051 6.92446C48.9364 6.10694 49.9995 5.51014 51.1945 5.14225C52.3895 4.74984 53.6174 4.54546 54.8618 4.54546C56.2711 4.54546 57.5485 4.75802 58.6857 5.17495C59.856 5.60007 60.8532 6.18051 61.6773 6.91629C62.5262 7.65206 63.1772 8.53499 63.6305 9.56508C64.1085 10.5952 64.3475 11.7152 64.3475 12.9251C64.3475 13.8244 64.092 14.5111 63.5893 14.9853C63.0866 15.4595 62.3778 15.7619 61.4795 15.8927L51.6313 17.3561C51.9197 18.2227 52.5213 18.8849 53.4278 19.3345C54.3344 19.7597 55.3645 19.964 56.5348 19.964C57.6226 19.964 58.6445 19.8332 59.6088 19.5716C60.5895 19.2855 61.3889 18.9503 61.9987 18.5824C62.4273 18.844 62.7816 19.2119 63.0783 19.6861C63.3668 20.1602 63.5151 20.6589 63.5151 21.1903C63.5151 22.3757 62.9547 23.2587 61.8421 23.8391C60.9933 24.2888 60.0373 24.5912 58.9742 24.7466C57.9111 24.9019 56.9139 24.9837 55.9826 24.9837L55.9744 25ZM54.8618 9.4588C54.2272 9.4588 53.6668 9.56508 53.1889 9.77764C52.7356 9.99019 52.3647 10.2682 52.0763 10.6115C51.7878 10.9304 51.5571 11.2982 51.4005 11.7152C51.2686 12.1076 51.1862 12.5164 51.1615 12.9415L57.977 11.8378C57.8946 11.3064 57.6061 10.7832 57.1034 10.2518C56.6007 9.72041 55.8508 9.4588 54.8701 9.4588H54.8618ZM71.8387 24.4931C70.6932 24.4931 69.7949 24.1661 69.1274 23.5039C68.4598 22.8417 68.1302 21.9506 68.1302 20.8143V0.359716C68.4186 0.310664 68.8884 0.237087 69.523 0.163509C70.1575 0.0572304 70.7756 0.00817871 71.3607 0.00817871C71.9459 0.00817871 72.5063 0.0572304 72.9595 0.163509C73.4375 0.245262 73.8331 0.400592 74.1545 0.637675C74.4759 0.874758 74.7149 1.20177 74.8715 1.62688C75.0281 2.052 75.1105 2.59974 75.1105 3.28647V18.9094H84.2418C84.4231 19.1956 84.6044 19.5961 84.761 20.0948C84.9176 20.569 85 21.0677 85 21.5991C85 22.6537 84.7775 23.4058 84.3242 23.8555C83.8709 24.2806 83.2776 24.485 82.5276 24.485H71.8387V24.4931Z" fill="white"/>
<path d="M21.5344 15.5085C21.5344 16.931 21.2789 18.2391 20.7762 19.4245C20.2982 20.5854 19.5895 21.5828 18.6664 22.433C17.7352 23.2505 16.6061 23.88 15.2793 24.3296C13.9525 24.7793 12.4443 25 10.7713 25C9.09837 25 7.59847 24.7793 6.26339 24.3296C4.93655 23.88 3.80751 23.2505 2.87625 22.433C1.94499 21.5909 1.228 20.5854 0.725287 19.4245C0.247296 18.2391 0.00830078 16.931 0.00830078 15.5085V0.39243C0.296744 0.343379 0.766494 0.269801 1.40107 0.196224C2.03564 0.0899452 2.64549 0.0408936 3.23062 0.0408936C3.81575 0.0408936 4.37615 0.0899452 4.82942 0.196224C5.30741 0.277977 5.70299 0.433307 6.02439 0.67039C6.3458 0.907473 6.5848 1.23448 6.74138 1.6596C6.89797 2.08471 6.98038 2.63246 6.98038 3.31918V15.3859C6.98038 16.6531 7.32651 17.6423 8.01877 18.3535C8.73576 19.0648 9.65053 19.4245 10.7713 19.4245C11.8921 19.4245 12.8316 19.0648 13.5239 18.3535C14.2162 17.6423 14.5623 16.6531 14.5623 15.3859V0.39243C14.8507 0.343379 15.3205 0.269801 15.9551 0.196224C16.5896 0.0899452 17.2077 0.0408936 17.7929 0.0408936C18.378 0.0408936 18.9384 0.0899452 19.3917 0.196224C19.8697 0.277977 20.2652 0.433307 20.5866 0.67039C20.908 0.907473 21.147 1.23448 21.3036 1.6596C21.4602 2.08471 21.5426 2.63246 21.5426 3.31918V15.5003L21.5344 15.5085Z" fill="white"/>
</g>
<defs>
<clipPath id="clip0_57_143">
<rect width="85" height="25" fill="white"/>
</clipPath>
</defs>
</svg>
