<svg width="237" height="65" viewBox="0 0 237 65" fill="none" xmlns="http://www.w3.org/2000/svg">
<g clip-path="url(#clip0_934_1289)">
<path d="M0.947266 65V0H16.083L51.9258 43.2714H44.7758V0H62.7901V65H47.6544L11.8116 21.7286H18.9615V65H0.947266ZM64.5233 25.1643H151.474V37.6316L64.5233 38.9072V25.1643ZM65.8233 50.7929H151.474V65L47.6233 65V0H151.474V14.2071H65.8233V50.7929Z" fill="white" fill-opacity="0.1"/>
</g>
<g clip-path="url(#clip1_934_1289)">
<path d="M59.1055 65V0H74.2412L110.084 43.2714H102.934V0H120.948V65H105.813L69.9698 21.7286H77.1198V65H59.1055ZM122.682 25.1643H152.86V38.9072H122.682V25.1643ZM123.982 50.7929H157.967V65H105.782V0H156.76V14.2071H123.982V50.7929ZM162.62 65L191.035 25.5357L190.942 38.6286L163.642 0H184.349L201.806 25.1643L192.985 25.2571L210.163 0H230.035L202.735 37.8857V24.8857L231.52 65H210.349L192.613 38.5357H201.063L183.606 65H162.62Z" fill="white" fill-opacity="0.1"/>
</g>
<defs>
<clipPath id="clip0_934_1289">
<rect width="150.526" height="65" fill="white" transform="translate(0.947266)"/>
</clipPath>
<clipPath id="clip1_934_1289">
<rect width="78.6842" height="65" fill="white" transform="translate(158.316)"/>
</clipPath>
</defs>
</svg>
