<svg width="78" height="22" viewBox="0 0 78 22" fill="none" xmlns="http://www.w3.org/2000/svg">
<path d="M7.79 21.5L0.98 0.499999H7.1L12.83 18.68H9.74L15.77 0.499999H21.23L26.93 18.68H23.96L29.87 0.499999H35.54L28.73 21.5H22.37L17.51 6.05H19.22L14.15 21.5H7.79ZM43.1284 8.63H52.8784V13.07H43.1284V8.63ZM43.5484 16.91H54.5284V21.5H37.6684V0.499999H54.1384V5.09H43.5484V16.91ZM57.8246 21.5V0.499999H68.5646C71.3246 0.499999 73.3846 1.01 74.7446 2.03C76.1046 3.03 76.7846 4.35 76.7846 5.99C76.7846 7.07 76.4946 8.02 75.9146 8.84C75.3546 9.64 74.5546 10.28 73.5146 10.76C72.4946 11.22 71.2746 11.45 69.8546 11.45L70.4546 10.01C71.9346 10.01 73.2246 10.24 74.3246 10.7C75.4246 11.14 76.2746 11.79 76.8746 12.65C77.4946 13.49 77.8046 14.52 77.8046 15.74C77.8046 17.56 77.0646 18.98 75.5846 20C74.1246 21 71.9846 21.5 69.1646 21.5H57.8246ZM63.7046 17.21H68.6846C69.7046 17.21 70.4746 17.04 70.9946 16.7C71.5346 16.34 71.8046 15.8 71.8046 15.08C71.8046 14.36 71.5346 13.83 70.9946 13.49C70.4746 13.13 69.7046 12.95 68.6846 12.95H63.2846V8.84H67.7846C68.7846 8.84 69.5346 8.67 70.0346 8.33C70.5346 7.99 70.7846 7.48 70.7846 6.8C70.7846 6.12 70.5346 5.62 70.0346 5.3C69.5346 4.96 68.7846 4.79 67.7846 4.79H63.7046V17.21Z" fill="white"/>
</svg>
