<svg width="78" height="21" viewBox="0 0 78 21" fill="none" xmlns="http://www.w3.org/2000/svg">
<path d="M7.29 21L0.48 -1.43051e-06H6.6L12.33 18.18H9.24L15.27 -1.43051e-06H20.73L26.43 18.18H23.46L29.37 -1.43051e-06H35.04L28.23 21H21.87L17.01 5.55H18.72L13.65 21H7.29ZM42.6284 8.13H52.3784V12.57H42.6284V8.13ZM43.0484 16.41H54.0284V21H37.1684V-1.43051e-06H53.6384V4.59H43.0484V16.41ZM57.3246 21V-1.43051e-06H68.0646C70.8246 -1.43051e-06 72.8846 0.509999 74.2446 1.53C75.6046 2.53 76.2846 3.85 76.2846 5.49C76.2846 6.57 75.9946 7.52 75.4146 8.34C74.8546 9.14 74.0546 9.78 73.0146 10.26C71.9946 10.72 70.7746 10.95 69.3546 10.95L69.9546 9.51C71.4346 9.51 72.7246 9.74 73.8246 10.2C74.9246 10.64 75.7746 11.29 76.3746 12.15C76.9946 12.99 77.3046 14.02 77.3046 15.24C77.3046 17.06 76.5646 18.48 75.0846 19.5C73.6246 20.5 71.4846 21 68.6646 21H57.3246ZM63.2046 16.71H68.1846C69.2046 16.71 69.9746 16.54 70.4946 16.2C71.0346 15.84 71.3046 15.3 71.3046 14.58C71.3046 13.86 71.0346 13.33 70.4946 12.99C69.9746 12.63 69.2046 12.45 68.1846 12.45H62.7846V8.34H67.2846C68.2846 8.34 69.0346 8.17 69.5346 7.83C70.0346 7.49 70.2846 6.98 70.2846 6.3C70.2846 5.62 70.0346 5.12 69.5346 4.8C69.0346 4.46 68.2846 4.29 67.2846 4.29H63.2046V16.71Z" fill="white"/>
</svg>
